<?xml version="1.0" encoding="UTF-8" standalone="no"?>
<svg
   xmlns:dc="http://purl.org/dc/elements/1.1/"
   xmlns:cc="http://creativecommons.org/ns#"
   xmlns:rdf="http://www.w3.org/1999/02/22-rdf-syntax-ns#"
   xmlns:svg="http://www.w3.org/2000/svg"
   xmlns="http://www.w3.org/2000/svg"
   viewBox="0 0 696 537.33331"
   height="537.33331"
   width="696"
   xml:space="preserve"
   id="svg2"
   version="1.1"><metadata
     id="metadata8"><rdf:RDF><cc:Work
         rdf:about=""><dc:format>image/svg+xml</dc:format><dc:type
           rdf:resource="http://purl.org/dc/dcmitype/StillImage" /></cc:Work></rdf:RDF></metadata><defs
     id="defs6"><clipPath
       id="clipPath20"
       clipPathUnits="userSpaceOnUse"><path
         id="path18"
         d="M 0,0 H 522 V 403 H 0 Z" /></clipPath><clipPath
       id="clipPath34"
       clipPathUnits="userSpaceOnUse"><path
         id="path32"
         d="M 0,208 H 521 V 404 H 0 Z" /></clipPath><clipPath
       id="clipPath46"
       clipPathUnits="userSpaceOnUse"><path
         id="path44"
         d="M 39,254 H 511 V 363 H 39 Z" /></clipPath><clipPath
       id="clipPath56"
       clipPathUnits="userSpaceOnUse"><path
         id="path54"
         d="M 39,254 H 511 V 363 H 39 Z" /></clipPath><clipPath
       id="clipPath66"
       clipPathUnits="userSpaceOnUse"><path
         id="path64"
         d="M 39,254 H 511 V 363 H 39 Z" /></clipPath><clipPath
       id="clipPath76"
       clipPathUnits="userSpaceOnUse"><path
         id="path74"
         d="M 0,208 H 521 V 404 H 0 Z" /></clipPath><clipPath
       id="clipPath88"
       clipPathUnits="userSpaceOnUse"><path
         id="path86"
         d="M 0,208 H 521 V 404 H 0 Z" /></clipPath><clipPath
       id="clipPath102"
       clipPathUnits="userSpaceOnUse"><path
         id="path100"
         d="M 0,208 H 521 V 404 H 0 Z" /></clipPath><clipPath
       id="clipPath116"
       clipPathUnits="userSpaceOnUse"><path
         id="path114"
         d="M 0,208 H 521 V 404 H 0 Z" /></clipPath><clipPath
       id="clipPath130"
       clipPathUnits="userSpaceOnUse"><path
         id="path128"
         d="M 0,208 H 521 V 404 H 0 Z" /></clipPath><clipPath
       id="clipPath144"
       clipPathUnits="userSpaceOnUse"><path
         id="path142"
         d="M 0,208 H 521 V 404 H 0 Z" /></clipPath><clipPath
       id="clipPath158"
       clipPathUnits="userSpaceOnUse"><path
         id="path156"
         d="M 0,208 H 521 V 404 H 0 Z" /></clipPath><clipPath
       id="clipPath172"
       clipPathUnits="userSpaceOnUse"><path
         id="path170"
         d="M 0,208 H 521 V 404 H 0 Z" /></clipPath><clipPath
       id="clipPath186"
       clipPathUnits="userSpaceOnUse"><path
         id="path184"
         d="M 0,208 H 521 V 404 H 0 Z" /></clipPath><clipPath
       id="clipPath200"
       clipPathUnits="userSpaceOnUse"><path
         id="path198"
         d="M 0,208 H 521 V 404 H 0 Z" /></clipPath><clipPath
       id="clipPath214"
       clipPathUnits="userSpaceOnUse"><path
         id="path212"
         d="M 0,208 H 521 V 404 H 0 Z" /></clipPath><clipPath
       id="clipPath228"
       clipPathUnits="userSpaceOnUse"><path
         id="path226"
         d="M 0,208 H 521 V 404 H 0 Z" /></clipPath><clipPath
       id="clipPath242"
       clipPathUnits="userSpaceOnUse"><path
         id="path240"
         d="M 0,208 H 521 V 404 H 0 Z" /></clipPath><clipPath
       id="clipPath256"
       clipPathUnits="userSpaceOnUse"><path
         id="path254"
         d="M 0,208 H 521 V 404 H 0 Z" /></clipPath><clipPath
       id="clipPath270"
       clipPathUnits="userSpaceOnUse"><path
         id="path268"
         d="M 0,208 H 521 V 404 H 0 Z" /></clipPath><clipPath
       id="clipPath280"
       clipPathUnits="userSpaceOnUse"><path
         id="path278"
         d="M 0,208 H 521 V 404 H 0 Z" /></clipPath><clipPath
       id="clipPath294"
       clipPathUnits="userSpaceOnUse"><path
         id="path292"
         d="M 0,208 H 521 V 404 H 0 Z" /></clipPath><clipPath
       id="clipPath304"
       clipPathUnits="userSpaceOnUse"><path
         id="path302"
         d="M 0,208 H 521 V 404 H 0 Z" /></clipPath><clipPath
       id="clipPath318"
       clipPathUnits="userSpaceOnUse"><path
         id="path316"
         d="M 0,208 H 521 V 404 H 0 Z" /></clipPath><clipPath
       id="clipPath328"
       clipPathUnits="userSpaceOnUse"><path
         id="path326"
         d="M 0,208 H 521 V 404 H 0 Z" /></clipPath><clipPath
       id="clipPath346"
       clipPathUnits="userSpaceOnUse"><path
         id="path344"
         d="M 0,0 H 521 V 196 H 0 Z" /></clipPath><clipPath
       id="clipPath358"
       clipPathUnits="userSpaceOnUse"><path
         id="path356"
         d="M 33,46 H 511 V 155 H 33 Z" /></clipPath><clipPath
       id="clipPath368"
       clipPathUnits="userSpaceOnUse"><path
         id="path366"
         d="M 33,46 H 511 V 155 H 33 Z" /></clipPath><clipPath
       id="clipPath378"
       clipPathUnits="userSpaceOnUse"><path
         id="path376"
         d="M 33,46 H 511 V 155 H 33 Z" /></clipPath><clipPath
       id="clipPath388"
       clipPathUnits="userSpaceOnUse"><path
         id="path386"
         d="M 0,0 H 521 V 196 H 0 Z" /></clipPath><clipPath
       id="clipPath400"
       clipPathUnits="userSpaceOnUse"><path
         id="path398"
         d="M 0,0 H 521 V 196 H 0 Z" /></clipPath><clipPath
       id="clipPath414"
       clipPathUnits="userSpaceOnUse"><path
         id="path412"
         d="M 0,0 H 521 V 196 H 0 Z" /></clipPath><clipPath
       id="clipPath428"
       clipPathUnits="userSpaceOnUse"><path
         id="path426"
         d="M 0,0 H 521 V 196 H 0 Z" /></clipPath><clipPath
       id="clipPath442"
       clipPathUnits="userSpaceOnUse"><path
         id="path440"
         d="M 0,0 H 521 V 196 H 0 Z" /></clipPath><clipPath
       id="clipPath456"
       clipPathUnits="userSpaceOnUse"><path
         id="path454"
         d="M 0,0 H 521 V 196 H 0 Z" /></clipPath><clipPath
       id="clipPath470"
       clipPathUnits="userSpaceOnUse"><path
         id="path468"
         d="M 0,0 H 521 V 196 H 0 Z" /></clipPath><clipPath
       id="clipPath484"
       clipPathUnits="userSpaceOnUse"><path
         id="path482"
         d="M 0,0 H 521 V 196 H 0 Z" /></clipPath><clipPath
       id="clipPath498"
       clipPathUnits="userSpaceOnUse"><path
         id="path496"
         d="M 0,0 H 521 V 196 H 0 Z" /></clipPath><clipPath
       id="clipPath512"
       clipPathUnits="userSpaceOnUse"><path
         id="path510"
         d="M 0,0 H 521 V 196 H 0 Z" /></clipPath><clipPath
       id="clipPath526"
       clipPathUnits="userSpaceOnUse"><path
         id="path524"
         d="M 0,0 H 521 V 196 H 0 Z" /></clipPath><clipPath
       id="clipPath540"
       clipPathUnits="userSpaceOnUse"><path
         id="path538"
         d="M 0,0 H 521 V 196 H 0 Z" /></clipPath><clipPath
       id="clipPath554"
       clipPathUnits="userSpaceOnUse"><path
         id="path552"
         d="M 0,0 H 521 V 196 H 0 Z" /></clipPath><clipPath
       id="clipPath568"
       clipPathUnits="userSpaceOnUse"><path
         id="path566"
         d="M 0,0 H 521 V 196 H 0 Z" /></clipPath><clipPath
       id="clipPath578"
       clipPathUnits="userSpaceOnUse"><path
         id="path576"
         d="M 0,0 H 521 V 196 H 0 Z" /></clipPath><clipPath
       id="clipPath592"
       clipPathUnits="userSpaceOnUse"><path
         id="path590"
         d="M 0,0 H 521 V 196 H 0 Z" /></clipPath><clipPath
       id="clipPath602"
       clipPathUnits="userSpaceOnUse"><path
         id="path600"
         d="M 0,0 H 521 V 196 H 0 Z" /></clipPath><clipPath
       id="clipPath616"
       clipPathUnits="userSpaceOnUse"><path
         id="path614"
         d="M 0,0 H 521 V 196 H 0 Z" /></clipPath><clipPath
       id="clipPath626"
       clipPathUnits="userSpaceOnUse"><path
         id="path624"
         d="M 0,0 H 521 V 196 H 0 Z" /></clipPath></defs><g
     transform="matrix(1.3333333,0,0,-1.3333333,0,537.33333)"
     id="g10"><g
       id="g12" /><g
       id="g14"><g
         clip-path="url(#clipPath20)"
         id="g16"><path
           id="path22"
           style="fill:#ffffff;fill-opacity:1;fill-rule:nonzero;stroke:none"
           d="M 0,403 H 522 V 0 H 0 Z" /></g></g><g
       id="g24"><path
         id="path26"
         style="fill:#ffffff;fill-opacity:1;fill-rule:nonzero;stroke:none"
         d="M 1,403 H 522 V 208 H 1 Z" /></g><g
       id="g28"><g
         clip-path="url(#clipPath34)"
         id="g30"><g
           transform="matrix(7.874016e-5,0,0,-7.874016e-5,39.5,362.5)"
           id="g36"><path
             id="path38"
             style="fill:none;stroke:#d9d9d9;stroke-width:9525;stroke-linecap:butt;stroke-linejoin:round;stroke-miterlimit:10;stroke-dasharray:none;stroke-opacity:1"
             d="M 0,1104900 H 5981700 M 0,825500 H 5981700 M 0,546100 H 5981700 M 0,266700 H 5981700 M 0,0 h 5981700" /></g></g></g><g
       id="g40"><g
         clip-path="url(#clipPath46)"
         id="g42"><path
           id="path48"
           style="fill:#da0d7f;fill-opacity:1;fill-rule:nonzero;stroke:none"
           d="M 55,312 H 69 V 254 H 55 Z m 78,-15 h 14 v -43 h -14 z m 79,51 h 14 v -94 h -14 z m 78,-72 h 14 v -22 h -14 z m 79,5 h 13 v -27 h -13 z m 78,32 h 14 v -59 h -14 z" /></g></g><g
       id="g50"><g
         clip-path="url(#clipPath56)"
         id="g52"><path
           id="path58"
           style="fill:#d9d9d9;fill-opacity:1;fill-rule:nonzero;stroke:none"
           d="M 72,286 H 86 V 254 H 72 Z m 79,18 h 13 v -50 h -13 z m 78,-36 h 14 v -14 h -14 z m 79,52 h 13 v -66 h -13 z m 78,-23 h 14 v -43 h -14 z m 79,-8 h 13 v -35 h -13 z" /></g></g><g
       id="g60"><g
         clip-path="url(#clipPath66)"
         id="g62"><path
           id="path68"
           style="fill:#5c7dfc;fill-opacity:1;fill-rule:nonzero;stroke:none"
           d="m 90,274 h 13 V 254 H 90 Z m 78,-4 h 14 v -16 h -14 z m 79,-15 h 13 v -1 h -13 z m 78,10 h 14 v -11 h -14 z m 79,28 h 13 v -39 h -13 z m 78,-24 h 14 v -15 h -14 z" /></g></g><g
       id="g70"><g
         clip-path="url(#clipPath76)"
         id="g72"><g
           transform="matrix(7.874016e-5,0,0,-7.874016e-5,39.5,254.5)"
           id="g78"><path
             id="path80"
             style="fill:none;stroke:#d9d9d9;stroke-width:9525;stroke-linecap:butt;stroke-linejoin:round;stroke-miterlimit:10;stroke-dasharray:none;stroke-opacity:1"
             d="M 0,0 5981700,1" /></g></g></g><g
       id="g82"><g
         clip-path="url(#clipPath88)"
         id="g84"><g
           transform="translate(21.12339,-153)"
           id="g90"><text
             id="text94"
             style="font-variant:normal;font-weight:normal;font-size:12px;font-family:Avenir;-inkscape-font-specification:Avenir-Book;writing-mode:lr-tb;fill:#000000;fill-opacity:1;fill-rule:nonzero;stroke:#000000;stroke-width:0.74000001;stroke-linecap:butt;stroke-linejoin:miter;stroke-miterlimit:10;stroke-dasharray:none;stroke-opacity:1"
             transform="matrix(1,0,0,-0.9803925,0,403.3627)"><tspan
               id="tspan92"
               y="0"
               x="0">0</tspan></text>
</g></g></g><g
       id="g96"><g
         clip-path="url(#clipPath102)"
         id="g98"><g
           transform="translate(14.22835,-131)"
           id="g104"><text
             id="text108"
             style="font-variant:normal;font-weight:normal;font-size:12px;font-family:Avenir;-inkscape-font-specification:Avenir-Book;writing-mode:lr-tb;fill:#000000;fill-opacity:1;fill-rule:nonzero;stroke:#000000;stroke-width:0.74000001;stroke-linecap:butt;stroke-linejoin:miter;stroke-miterlimit:10;stroke-dasharray:none;stroke-opacity:1"
             transform="matrix(1,0,0,-0.9803925,0,403.3627)"><tspan
               id="tspan106"
               y="0"
               x="0 6.9995999">20</tspan></text>
</g></g></g><g
       id="g110"><g
         clip-path="url(#clipPath116)"
         id="g112"><g
           transform="translate(14.22835,-109)"
           id="g118"><text
             id="text122"
             style="font-variant:normal;font-weight:normal;font-size:12px;font-family:Avenir;-inkscape-font-specification:Avenir-Book;writing-mode:lr-tb;fill:#000000;fill-opacity:1;fill-rule:nonzero;stroke:#000000;stroke-width:0.74000001;stroke-linecap:butt;stroke-linejoin:miter;stroke-miterlimit:10;stroke-dasharray:none;stroke-opacity:1"
             transform="matrix(1,0,0,-0.9803925,0,403.3627)"><tspan
               id="tspan120"
               y="0"
               x="0 6.9995999">40</tspan></text>
</g></g></g><g
       id="g124"><g
         clip-path="url(#clipPath130)"
         id="g126"><g
           transform="translate(14.22835,-87)"
           id="g132"><text
             id="text136"
             style="font-variant:normal;font-weight:normal;font-size:12px;font-family:Avenir;-inkscape-font-specification:Avenir-Book;writing-mode:lr-tb;fill:#000000;fill-opacity:1;fill-rule:nonzero;stroke:#000000;stroke-width:0.74000001;stroke-linecap:butt;stroke-linejoin:miter;stroke-miterlimit:10;stroke-dasharray:none;stroke-opacity:1"
             transform="matrix(1,0,0,-0.9803925,0,403.3627)"><tspan
               id="tspan134"
               y="0"
               x="0 6.9995999">60</tspan></text>
</g></g></g><g
       id="g138"><g
         clip-path="url(#clipPath144)"
         id="g140"><g
           transform="translate(14.22835,-66)"
           id="g146"><text
             id="text150"
             style="font-variant:normal;font-weight:normal;font-size:12px;font-family:Avenir;-inkscape-font-specification:Avenir-Book;writing-mode:lr-tb;fill:#000000;fill-opacity:1;fill-rule:nonzero;stroke:#000000;stroke-width:0.74000001;stroke-linecap:butt;stroke-linejoin:miter;stroke-miterlimit:10;stroke-dasharray:none;stroke-opacity:1"
             transform="matrix(1,0,0,-0.9803925,0,403.3627)"><tspan
               id="tspan148"
               y="0"
               x="0 6.9995999">80</tspan></text>
</g></g></g><g
       id="g152"><g
         clip-path="url(#clipPath158)"
         id="g154"><g
           transform="translate(7.333307,-44)"
           id="g160"><text
             id="text164"
             style="font-variant:normal;font-weight:normal;font-size:12px;font-family:Avenir;-inkscape-font-specification:Avenir-Book;writing-mode:lr-tb;fill:#000000;fill-opacity:1;fill-rule:nonzero;stroke:#000000;stroke-width:0.74000001;stroke-linecap:butt;stroke-linejoin:miter;stroke-miterlimit:10;stroke-dasharray:none;stroke-opacity:1"
             transform="matrix(1,0,0,-0.9803925,0,403.3627)"><tspan
               id="tspan162"
               y="0"
               x="0 6.9995999 13.9992">100</tspan></text>
</g></g></g><g
       id="g166"><g
         clip-path="url(#clipPath172)"
         id="g168"><g
           transform="translate(43.94567,-169)"
           id="g174"><text
             id="text178"
             style="font-variant:normal;font-weight:normal;font-size:12px;font-family:Avenir;-inkscape-font-specification:Avenir-Book;writing-mode:lr-tb;fill:#000000;fill-opacity:1;fill-rule:nonzero;stroke:#000000;stroke-width:0.74000001;stroke-linecap:butt;stroke-linejoin:miter;stroke-miterlimit:10;stroke-dasharray:none;stroke-opacity:1"
             transform="matrix(1,0,0,-0.9803925,0,403.3627)"><tspan
               id="tspan176"
               y="0"
               x="0 9.9996004 16.003201 20.0028 27.002399 31.002001 38.001598 41.005199 44.008801 51.0084 54.012001 62.007599">Natural Flow</tspan></text>
</g></g></g><g
       id="g180"><g
         clip-path="url(#clipPath186)"
         id="g182"><g
           transform="translate(118.7079,-169)"
           id="g188"><text
             id="text192"
             style="font-variant:normal;font-weight:normal;font-size:12px;font-family:Avenir;-inkscape-font-specification:Avenir-Book;writing-mode:lr-tb;fill:#000000;fill-opacity:1;fill-rule:nonzero;stroke:#000000;stroke-width:0.74000001;stroke-linecap:butt;stroke-linejoin:miter;stroke-miterlimit:10;stroke-dasharray:none;stroke-opacity:1"
             transform="matrix(1,0,0,-0.9803925,0,403.3627)"><tspan
               id="tspan190"
               y="0"
               x="0 6.9995999 13.9992 21.994801 27.9984 35.993999 38.997601 45.9972 52.996799 59.996399 66.996002 71.9916">Engagingness</tspan></text>
</g></g></g><g
       id="g194"><g
         clip-path="url(#clipPath200)"
         id="g196"><g
           transform="translate(207.7226,-169)"
           id="g202"><text
             id="text206"
             style="font-variant:normal;font-weight:normal;font-size:12px;font-family:Avenir;-inkscape-font-specification:Avenir-Book;writing-mode:lr-tb;fill:#000000;fill-opacity:1;fill-rule:nonzero;stroke:#000000;stroke-width:0.74000001;stroke-linecap:butt;stroke-linejoin:miter;stroke-miterlimit:10;stroke-dasharray:none;stroke-opacity:1"
             transform="matrix(1,0,0,-0.9803925,0,403.3627)"><tspan
               id="tspan204"
               y="0"
               x="0 6.9995999 13.9992 20.9988 27.002399 30.006001 34.0056 37.009201 43.012798 46.016399 51.012001">Specificity</tspan></text>
</g></g></g><g
       id="g208"><g
         clip-path="url(#clipPath214)"
         id="g210"><g
           transform="translate(301.9724,-169)"
           id="g216"><text
             id="text220"
             style="font-variant:normal;font-weight:normal;font-size:12px;font-family:Avenir;-inkscape-font-specification:Avenir-Book;writing-mode:lr-tb;fill:#000000;fill-opacity:1;fill-rule:nonzero;stroke:#000000;stroke-width:0.74000001;stroke-linecap:butt;stroke-linejoin:miter;stroke-miterlimit:10;stroke-dasharray:none;stroke-opacity:1"
             transform="matrix(1,0,0,-0.9803925,0,403.3627)"><tspan
               id="tspan218"
               y="0"
               x="0 6.9995999 13.9992 17.9988">Turn</tspan></text>
</g></g></g><g
       id="g222"><g
         clip-path="url(#clipPath228)"
         id="g224"><g
           transform="translate(286.2798,-185)"
           id="g230"><text
             id="text234"
             style="font-variant:normal;font-weight:normal;font-size:12px;font-family:Avenir;-inkscape-font-specification:Avenir-Book;writing-mode:lr-tb;fill:#000000;fill-opacity:1;fill-rule:nonzero;stroke:#000000;stroke-width:0.74000001;stroke-linecap:butt;stroke-linejoin:miter;stroke-miterlimit:10;stroke-dasharray:none;stroke-opacity:1"
             transform="matrix(1,0,0,-0.9803925,0,403.3627)"><tspan
               id="tspan232"
               y="0"
               x="0 6.9995999 13.9992 17.0028 24.002399 30.006001 37.0056 44.005199 50.008801">Relevance</tspan></text>
</g></g></g><g
       id="g236"><g
         clip-path="url(#clipPath242)"
         id="g238"><g
           transform="translate(359.6271,-169)"
           id="g244"><text
             id="text248"
             style="font-variant:normal;font-weight:normal;font-size:12px;font-family:Avenir;-inkscape-font-specification:Avenir-Book;writing-mode:lr-tb;fill:#000000;fill-opacity:1;fill-rule:nonzero;stroke:#000000;stroke-width:0.74000001;stroke-linecap:butt;stroke-linejoin:miter;stroke-miterlimit:10;stroke-dasharray:none;stroke-opacity:1"
             transform="matrix(1,0,0,-0.9803925,0,403.3627)"><tspan
               id="tspan246"
               y="0"
               x="0 9 15.996 22.992001 27.996 30.996 36.995998 40.992001 47.987999 54.984001 60.984001">Consistency</tspan></text>
</g></g></g><g
       id="g250"><g
         clip-path="url(#clipPath256)"
         id="g252"><g
           transform="translate(451.4343,-169)"
           id="g258"><text
             id="text262"
             style="font-variant:normal;font-weight:normal;font-size:12px;font-family:Avenir;-inkscape-font-specification:Avenir-Book;writing-mode:lr-tb;fill:#000000;fill-opacity:1;fill-rule:nonzero;stroke:#000000;stroke-width:0.74000001;stroke-linecap:butt;stroke-linejoin:miter;stroke-miterlimit:10;stroke-dasharray:none;stroke-opacity:1"
             transform="matrix(1,0,0,-0.9803925,0,403.3627)"><tspan
               id="tspan260"
               y="0"
               x="0 9.9996004 16.003201 23.0028 27.002399 34.001999 37.0056">Overall</tspan></text>
</g></g></g><g
       id="g264"><g
         clip-path="url(#clipPath270)"
         id="g266"><path
           id="path272"
           style="fill:#da0d7f;fill-opacity:1;fill-rule:nonzero;stroke:none"
           d="m 169,390 h 7 v -7 h -7 z" /></g></g><g
       id="g274"><g
         clip-path="url(#clipPath280)"
         id="g276"><g
           transform="translate(179.3479,-20)"
           id="g282"><text
             id="text286"
             style="font-variant:normal;font-weight:normal;font-size:12px;font-family:Avenir;-inkscape-font-specification:Avenir-Book;writing-mode:lr-tb;fill:#000000;fill-opacity:1;fill-rule:nonzero;stroke:#000000;stroke-width:0.74000001;stroke-linecap:butt;stroke-linejoin:miter;stroke-miterlimit:10;stroke-dasharray:none;stroke-opacity:1"
             transform="matrix(1,0,0,-0.9803925,0,403.3627)"><tspan
               id="tspan284"
               y="0"
               x="0 6.9995999 10.9992 17.9988 21.9984 28.002001 31.0056 34.009201 42.004799 49.004398 53.004002 57.999599">Stark (ours)</tspan></text>
</g></g></g><g
       id="g288"><g
         clip-path="url(#clipPath294)"
         id="g290"><path
           id="path296"
           style="fill:#d9d9d9;fill-opacity:1;fill-rule:nonzero;stroke:none"
           d="m 254,390 h 7 v -7 h -7 z" /></g></g><g
       id="g298"><g
         clip-path="url(#clipPath304)"
         id="g300"><g
           transform="translate(264.0044,-20)"
           id="g306"><text
             id="text310"
             style="font-variant:normal;font-weight:normal;font-size:12px;font-family:Avenir;-inkscape-font-specification:Avenir-Book;writing-mode:lr-tb;fill:#000000;fill-opacity:1;fill-rule:nonzero;stroke:#000000;stroke-width:0.74000001;stroke-linecap:butt;stroke-linejoin:miter;stroke-miterlimit:10;stroke-dasharray:none;stroke-opacity:1"
             transform="matrix(1,0,0,-0.9803925,0,403.3627)"><tspan
               id="tspan308"
               y="0"
               x="0 6.9995999 10.0032">Tie</tspan></text>
</g></g></g><g
       id="g312"><g
         clip-path="url(#clipPath318)"
         id="g314"><path
           id="path320"
           style="fill:#5c7dfc;fill-opacity:1;fill-rule:nonzero;stroke:none"
           d="m 294,390 h 7 v -7 h -7 z" /></g></g><g
       id="g322"><g
         clip-path="url(#clipPath328)"
         id="g324"><g
           transform="translate(304.1707,-20)"
           id="g330"><text
             id="text334"
             style="font-variant:normal;font-weight:normal;font-size:12px;font-family:Avenir;-inkscape-font-specification:Avenir-Book;writing-mode:lr-tb;fill:#000000;fill-opacity:1;fill-rule:nonzero;stroke:#000000;stroke-width:0.74000001;stroke-linecap:butt;stroke-linejoin:miter;stroke-miterlimit:10;stroke-dasharray:none;stroke-opacity:1"
             transform="matrix(1,0,0,-0.9803925,0,403.3627)"><tspan
               id="tspan332"
               y="0"
               x="0 9 12 18.996 21.996 28.992001 36.995998 45">DialogCC</tspan></text>
</g></g></g><g
       id="g336"><path
         id="path338"
         style="fill:#ffffff;fill-opacity:1;fill-rule:nonzero;stroke:none"
         d="M 1,195 H 522 V -2.87735e-6 H 1 Z" /></g><g
       id="g340"><g
         clip-path="url(#clipPath346)"
         id="g342"><g
           transform="matrix(7.874016e-5,0,0,-7.874016e-5,33.5,154.5)"
           id="g348"><path
             id="path350"
             style="fill:none;stroke:#d9d9d9;stroke-width:9525;stroke-linecap:butt;stroke-linejoin:round;stroke-miterlimit:10;stroke-dasharray:none;stroke-opacity:1"
             d="M 0,1028700 H 6057900 M 0,685800 H 6057900 M 0,342900 H 6057900 M 0,0 h 6057900" /></g></g></g><g
       id="g352"><g
         clip-path="url(#clipPath358)"
         id="g354"><path
           id="path360"
           style="fill:#da0d7f;fill-opacity:1;fill-rule:nonzero;stroke:none"
           d="M 48,115 H 62 V 46 H 48 Z m 80,-10 h 14 V 46 h -14 z m 79,-19 h 14 V 46 h -14 z m 80,0 h 14 V 46 h -14 z m 80,0 h 14 V 46 h -14 z m 79,16 h 14 V 46 h -14 z" /></g></g><g
       id="g362"><g
         clip-path="url(#clipPath368)"
         id="g364"><path
           id="path370"
           style="fill:#d9d9d9;fill-opacity:1;fill-rule:nonzero;stroke:none"
           d="M 66,107 H 80 V 46 H 66 Z m 80,8 h 13 V 46 h -13 z m 79,13 h 14 V 46 h -14 z m 80,-15 h 14 V 46 h -14 z m 79,-17 h 14 V 46 h -14 z m 80,-4 h 14 V 46 h -14 z" /></g></g><g
       id="g372"><g
         clip-path="url(#clipPath378)"
         id="g374"><path
           id="path380"
           style="fill:#1bca97;fill-opacity:1;fill-rule:nonzero;stroke:none"
           d="M 84,52 H 97 V 46 H 84 Z m 79,2 h 14 v -8 h -14 z m 80,7 h 14 V 46 h -14 z m 79,15 h 14 V 46 h -14 z m 80,16 h 14 V 46 h -14 z m 80,-12 h 13 V 46 h -13 z" /></g></g><g
       id="g382"><g
         clip-path="url(#clipPath388)"
         id="g384"><g
           transform="matrix(7.874016e-5,0,0,-7.874016e-5,33.5,46.5)"
           id="g390"><path
             id="path392"
             style="fill:none;stroke:#d9d9d9;stroke-width:9525;stroke-linecap:butt;stroke-linejoin:round;stroke-miterlimit:10;stroke-dasharray:none;stroke-opacity:1"
             d="M 0,0 6057900,1" /></g></g></g><g
       id="g394"><g
         clip-path="url(#clipPath400)"
         id="g396"><g
           transform="translate(14.22835,-361)"
           id="g402"><text
             id="text406"
             style="font-variant:normal;font-weight:normal;font-size:12px;font-family:Avenir;-inkscape-font-specification:Avenir-Book;writing-mode:lr-tb;fill:#000000;fill-opacity:1;fill-rule:nonzero;stroke:#000000;stroke-width:0.74000001;stroke-linecap:butt;stroke-linejoin:miter;stroke-miterlimit:10;stroke-dasharray:none;stroke-opacity:1"
             transform="matrix(1,0,0,-0.9803925,0,403.3627)"><tspan
               id="tspan404"
               y="0"
               x="0">0</tspan></text>
</g></g></g><g
       id="g408"><g
         clip-path="url(#clipPath414)"
         id="g410"><g
           transform="translate(7.333307,-333)"
           id="g416"><text
             id="text420"
             style="font-variant:normal;font-weight:normal;font-size:12px;font-family:Avenir;-inkscape-font-specification:Avenir-Book;writing-mode:lr-tb;fill:#000000;fill-opacity:1;fill-rule:nonzero;stroke:#000000;stroke-width:0.74000001;stroke-linecap:butt;stroke-linejoin:miter;stroke-miterlimit:10;stroke-dasharray:none;stroke-opacity:1"
             transform="matrix(1,0,0,-0.9803925,0,403.3627)"><tspan
               id="tspan418"
               y="0"
               x="0 6.9995999">20</tspan></text>
</g></g></g><g
       id="g422"><g
         clip-path="url(#clipPath428)"
         id="g424"><g
           transform="translate(7.333307,-306)"
           id="g430"><text
             id="text434"
             style="font-variant:normal;font-weight:normal;font-size:12px;font-family:Avenir;-inkscape-font-specification:Avenir-Book;writing-mode:lr-tb;fill:#000000;fill-opacity:1;fill-rule:nonzero;stroke:#000000;stroke-width:0.74000001;stroke-linecap:butt;stroke-linejoin:miter;stroke-miterlimit:10;stroke-dasharray:none;stroke-opacity:1"
             transform="matrix(1,0,0,-0.9803925,0,403.3627)"><tspan
               id="tspan432"
               y="0"
               x="0 6.9995999">40</tspan></text>
</g></g></g><g
       id="g436"><g
         clip-path="url(#clipPath442)"
         id="g438"><g
           transform="translate(7.333307,-279)"
           id="g444"><text
             id="text448"
             style="font-variant:normal;font-weight:normal;font-size:12px;font-family:Avenir;-inkscape-font-specification:Avenir-Book;writing-mode:lr-tb;fill:#000000;fill-opacity:1;fill-rule:nonzero;stroke:#000000;stroke-width:0.74000001;stroke-linecap:butt;stroke-linejoin:miter;stroke-miterlimit:10;stroke-dasharray:none;stroke-opacity:1"
             transform="matrix(1,0,0,-0.9803925,0,403.3627)"><tspan
               id="tspan446"
               y="0"
               x="0 6.9995999">60</tspan></text>
</g></g></g><g
       id="g450"><g
         clip-path="url(#clipPath456)"
         id="g452"><g
           transform="translate(7.333307,-252)"
           id="g458"><text
             id="text462"
             style="font-variant:normal;font-weight:normal;font-size:12px;font-family:Avenir;-inkscape-font-specification:Avenir-Book;writing-mode:lr-tb;fill:#000000;fill-opacity:1;fill-rule:nonzero;stroke:#000000;stroke-width:0.74000001;stroke-linecap:butt;stroke-linejoin:miter;stroke-miterlimit:10;stroke-dasharray:none;stroke-opacity:1"
             transform="matrix(1,0,0,-0.9803925,0,403.3627)"><tspan
               id="tspan460"
               y="0"
               x="0 6.9995999">80</tspan></text>
</g></g></g><g
       id="g464"><g
         clip-path="url(#clipPath470)"
         id="g466"><g
           transform="translate(37.62527,-377)"
           id="g472"><text
             id="text476"
             style="font-variant:normal;font-weight:normal;font-size:12px;font-family:Avenir;-inkscape-font-specification:Avenir-Book;writing-mode:lr-tb;fill:#000000;fill-opacity:1;fill-rule:nonzero;stroke:#000000;stroke-width:0.74000001;stroke-linecap:butt;stroke-linejoin:miter;stroke-miterlimit:10;stroke-dasharray:none;stroke-opacity:1"
             transform="matrix(1,0,0,-0.9803925,0,403.3627)"><tspan
               id="tspan474"
               y="0"
               x="0 9.9996004 16.003201 20.0028 27.002399 31.002001 38.001598 41.005199 44.008801 51.0084 54.012001 62.007599">Natural Flow</tspan></text>
</g></g></g><g
       id="g478"><g
         clip-path="url(#clipPath484)"
         id="g480"><g
           transform="translate(113.5366,-377)"
           id="g486"><text
             id="text490"
             style="font-variant:normal;font-weight:normal;font-size:12px;font-family:Avenir;-inkscape-font-specification:Avenir-Book;writing-mode:lr-tb;fill:#000000;fill-opacity:1;fill-rule:nonzero;stroke:#000000;stroke-width:0.74000001;stroke-linecap:butt;stroke-linejoin:miter;stroke-miterlimit:10;stroke-dasharray:none;stroke-opacity:1"
             transform="matrix(1,0,0,-0.9803925,0,403.3627)"><tspan
               id="tspan488"
               y="0"
               x="0 6.9995999 13.9992 21.994801 27.9984 35.993999 38.997601 45.9972 52.996799 59.996399 66.996002 71.9916">Engagingness</tspan></text>
</g></g></g><g
       id="g492"><g
         clip-path="url(#clipPath498)"
         id="g494"><g
           transform="translate(203.7005,-377)"
           id="g500"><text
             id="text504"
             style="font-variant:normal;font-weight:normal;font-size:12px;font-family:Avenir;-inkscape-font-specification:Avenir-Book;writing-mode:lr-tb;fill:#000000;fill-opacity:1;fill-rule:nonzero;stroke:#000000;stroke-width:0.74000001;stroke-linecap:butt;stroke-linejoin:miter;stroke-miterlimit:10;stroke-dasharray:none;stroke-opacity:1"
             transform="matrix(1,0,0,-0.9803925,0,403.3627)"><tspan
               id="tspan502"
               y="0"
               x="0 6.9995999 13.9992 20.9988 27.002399 30.006001 34.0056 37.009201 43.012798 46.016399 51.012001">Specificity</tspan></text>
</g></g></g><g
       id="g506"><g
         clip-path="url(#clipPath512)"
         id="g508"><g
           transform="translate(299.0995,-377)"
           id="g514"><text
             id="text518"
             style="font-variant:normal;font-weight:normal;font-size:12px;font-family:Avenir;-inkscape-font-specification:Avenir-Book;writing-mode:lr-tb;fill:#000000;fill-opacity:1;fill-rule:nonzero;stroke:#000000;stroke-width:0.74000001;stroke-linecap:butt;stroke-linejoin:miter;stroke-miterlimit:10;stroke-dasharray:none;stroke-opacity:1"
             transform="matrix(1,0,0,-0.9803925,0,403.3627)"><tspan
               id="tspan516"
               y="0"
               x="0 6.9995999 13.9992 17.9988">Turn</tspan></text>
</g></g></g><g
       id="g520"><g
         clip-path="url(#clipPath526)"
         id="g522"><g
           transform="translate(283.4069,-393)"
           id="g528"><text
             id="text532"
             style="font-variant:normal;font-weight:normal;font-size:12px;font-family:Avenir;-inkscape-font-specification:Avenir-Book;writing-mode:lr-tb;fill:#000000;fill-opacity:1;fill-rule:nonzero;stroke:#000000;stroke-width:0.74000001;stroke-linecap:butt;stroke-linejoin:miter;stroke-miterlimit:10;stroke-dasharray:none;stroke-opacity:1"
             transform="matrix(1,0,0,-0.9803925,0,403.3627)"><tspan
               id="tspan530"
               y="0"
               x="0 6.9995999 13.9992 17.0028 24.002399 30.006001 37.0056 44.005199 50.008801">Relevance</tspan></text>
</g></g></g><g
       id="g534"><g
         clip-path="url(#clipPath540)"
         id="g536"><g
           transform="translate(357.9033,-377)"
           id="g542"><text
             id="text546"
             style="font-variant:normal;font-weight:normal;font-size:12px;font-family:Avenir;-inkscape-font-specification:Avenir-Book;writing-mode:lr-tb;fill:#000000;fill-opacity:1;fill-rule:nonzero;stroke:#000000;stroke-width:0.74000001;stroke-linecap:butt;stroke-linejoin:miter;stroke-miterlimit:10;stroke-dasharray:none;stroke-opacity:1"
             transform="matrix(1,0,0,-0.9803925,0,403.3627)"><tspan
               id="tspan544"
               y="0"
               x="0 9 15.996 22.992001 27.996 30.996 36.995998 40.992001 47.987999 54.984001 60.984001">Consistency</tspan></text>
</g></g></g><g
       id="g548"><g
         clip-path="url(#clipPath554)"
         id="g550"><g
           transform="translate(450.8597,-377)"
           id="g556"><text
             id="text560"
             style="font-variant:normal;font-weight:normal;font-size:12px;font-family:Avenir;-inkscape-font-specification:Avenir-Book;writing-mode:lr-tb;fill:#000000;fill-opacity:1;fill-rule:nonzero;stroke:#000000;stroke-width:0.74000001;stroke-linecap:butt;stroke-linejoin:miter;stroke-miterlimit:10;stroke-dasharray:none;stroke-opacity:1"
             transform="matrix(1,0,0,-0.9803925,0,403.3627)"><tspan
               id="tspan558"
               y="0"
               x="0 9.9996004 16.003201 23.0028 27.002399 34.001999 37.0056">Overall</tspan></text>
</g></g></g><g
       id="g562"><g
         clip-path="url(#clipPath568)"
         id="g564"><path
           id="path570"
           style="fill:#da0d7f;fill-opacity:1;fill-rule:nonzero;stroke:none"
           d="m 167,182 h 7 v -7 h -7 z" /></g></g><g
       id="g572"><g
         clip-path="url(#clipPath578)"
         id="g574"><g
           transform="translate(176.8949,-228)"
           id="g580"><text
             id="text584"
             style="font-variant:normal;font-weight:normal;font-size:12px;font-family:Avenir;-inkscape-font-specification:Avenir-Book;writing-mode:lr-tb;fill:#000000;fill-opacity:1;fill-rule:nonzero;stroke:#000000;stroke-width:0.74000001;stroke-linecap:butt;stroke-linejoin:miter;stroke-miterlimit:10;stroke-dasharray:none;stroke-opacity:1"
             transform="matrix(1,0,0,-0.9803925,0,403.3627)"><tspan
               id="tspan582"
               y="0"
               x="0 6.9995999 10.9992 17.9988 21.9984 28.002001 31.0056 34.009201 42.004799 49.004398 53.004002 57.999599">Stark (ours)</tspan></text>
</g></g></g><g
       id="g586"><g
         clip-path="url(#clipPath592)"
         id="g588"><path
           id="path594"
           style="fill:#d9d9d9;fill-opacity:1;fill-rule:nonzero;stroke:none"
           d="m 251,182 h 8 v -7 h -8 z" /></g></g><g
       id="g596"><g
         clip-path="url(#clipPath602)"
         id="g598"><g
           transform="translate(261.7743,-228)"
           id="g604"><text
             id="text608"
             style="font-variant:normal;font-weight:normal;font-size:12px;font-family:Avenir;-inkscape-font-specification:Avenir-Book;writing-mode:lr-tb;fill:#000000;fill-opacity:1;fill-rule:nonzero;stroke:#000000;stroke-width:0.74000001;stroke-linecap:butt;stroke-linejoin:miter;stroke-miterlimit:10;stroke-dasharray:none;stroke-opacity:1"
             transform="matrix(1,0,0,-0.9803925,0,403.3627)"><tspan
               id="tspan606"
               y="0"
               x="0 6.9995999 10.0032">Tie</tspan></text>
</g></g></g><g
       id="g610"><g
         clip-path="url(#clipPath616)"
         id="g612"><path
           id="path618"
           style="fill:#1bca97;fill-opacity:1;fill-rule:nonzero;stroke:none"
           d="m 292,182 h 7 v -7 h -7 z" /></g></g><g
       id="g620"><g
         clip-path="url(#clipPath626)"
         id="g622"><g
           transform="translate(302.1636,-228)"
           id="g628"><text
             id="text632"
             style="font-variant:normal;font-weight:normal;font-size:12px;font-family:Avenir;-inkscape-font-specification:Avenir-Book;writing-mode:lr-tb;fill:#000000;fill-opacity:1;fill-rule:nonzero;stroke:#000000;stroke-width:0.74000001;stroke-linecap:butt;stroke-linejoin:miter;stroke-miterlimit:10;stroke-dasharray:none;stroke-opacity:1"
             transform="matrix(1,0,0,-0.9803925,0,403.3627)"><tspan
               id="tspan630"
               y="0"
               x="0 11.0004 22.000799 30.9972 33.993599 39.990002 43.9944 50.998798">MMDialog</tspan></text>
</g></g></g></g></svg>