<?xml version="1.0" encoding="UTF-8" standalone="no"?>
<svg
   xmlns:dc="http://purl.org/dc/elements/1.1/"
   xmlns:cc="http://creativecommons.org/ns#"
   xmlns:rdf="http://www.w3.org/1999/02/22-rdf-syntax-ns#"
   xmlns:svg="http://www.w3.org/2000/svg"
   xmlns="http://www.w3.org/2000/svg"
   viewBox="0 0 706.66669 692"
   height="692"
   width="706.66669"
   xml:space="preserve"
   id="svg2"
   version="1.1"><metadata
     id="metadata8"><rdf:RDF><cc:Work
         rdf:about=""><dc:format>image/svg+xml</dc:format><dc:type
           rdf:resource="http://purl.org/dc/dcmitype/StillImage" /></cc:Work></rdf:RDF></metadata><defs
     id="defs6"><clipPath
       id="clipPath20"
       clipPathUnits="userSpaceOnUse"><path
         id="path18"
         d="M 0,0 H 530 V 519 H 0 Z" /></clipPath><clipPath
       id="clipPath30"
       clipPathUnits="userSpaceOnUse"><path
         id="path28"
         d="M 0,327 H 530 V 519 H 0 Z" /></clipPath><clipPath
       id="clipPath42"
       clipPathUnits="userSpaceOnUse"><path
         id="path40"
         d="M 34,376 H 519 V 477 H 34 Z" /></clipPath><clipPath
       id="clipPath52"
       clipPathUnits="userSpaceOnUse"><path
         id="path50"
         d="M 34,376 H 519 V 477 H 34 Z" /></clipPath><clipPath
       id="clipPath62"
       clipPathUnits="userSpaceOnUse"><path
         id="path60"
         d="M 34,376 H 519 V 477 H 34 Z" /></clipPath><clipPath
       id="clipPath72"
       clipPathUnits="userSpaceOnUse"><path
         id="path70"
         d="M 0,327 H 530 V 519 H 0 Z" /></clipPath><clipPath
       id="clipPath84"
       clipPathUnits="userSpaceOnUse"><path
         id="path82"
         d="M 0,327 H 530 V 519 H 0 Z" /></clipPath><clipPath
       id="clipPath98"
       clipPathUnits="userSpaceOnUse"><path
         id="path96"
         d="M 0,327 H 530 V 519 H 0 Z" /></clipPath><clipPath
       id="clipPath112"
       clipPathUnits="userSpaceOnUse"><path
         id="path110"
         d="M 0,327 H 530 V 519 H 0 Z" /></clipPath><clipPath
       id="clipPath126"
       clipPathUnits="userSpaceOnUse"><path
         id="path124"
         d="M 0,327 H 530 V 519 H 0 Z" /></clipPath><clipPath
       id="clipPath140"
       clipPathUnits="userSpaceOnUse"><path
         id="path138"
         d="M 0,327 H 530 V 519 H 0 Z" /></clipPath><clipPath
       id="clipPath154"
       clipPathUnits="userSpaceOnUse"><path
         id="path152"
         d="M 0,327 H 530 V 519 H 0 Z" /></clipPath><clipPath
       id="clipPath168"
       clipPathUnits="userSpaceOnUse"><path
         id="path166"
         d="M 0,327 H 530 V 519 H 0 Z" /></clipPath><clipPath
       id="clipPath182"
       clipPathUnits="userSpaceOnUse"><path
         id="path180"
         d="M 0,327 H 530 V 519 H 0 Z" /></clipPath><clipPath
       id="clipPath196"
       clipPathUnits="userSpaceOnUse"><path
         id="path194"
         d="M 0,327 H 530 V 519 H 0 Z" /></clipPath><clipPath
       id="clipPath210"
       clipPathUnits="userSpaceOnUse"><path
         id="path208"
         d="M 0,327 H 530 V 519 H 0 Z" /></clipPath><clipPath
       id="clipPath224"
       clipPathUnits="userSpaceOnUse"><path
         id="path222"
         d="M 0,327 H 530 V 519 H 0 Z" /></clipPath><clipPath
       id="clipPath238"
       clipPathUnits="userSpaceOnUse"><path
         id="path236"
         d="M 0,327 H 530 V 519 H 0 Z" /></clipPath><clipPath
       id="clipPath252"
       clipPathUnits="userSpaceOnUse"><path
         id="path250"
         d="M 0,327 H 530 V 519 H 0 Z" /></clipPath><clipPath
       id="clipPath262"
       clipPathUnits="userSpaceOnUse"><path
         id="path260"
         d="M 0,327 H 530 V 519 H 0 Z" /></clipPath><clipPath
       id="clipPath276"
       clipPathUnits="userSpaceOnUse"><path
         id="path274"
         d="M 0,327 H 530 V 519 H 0 Z" /></clipPath><clipPath
       id="clipPath286"
       clipPathUnits="userSpaceOnUse"><path
         id="path284"
         d="M 0,327 H 530 V 519 H 0 Z" /></clipPath><clipPath
       id="clipPath300"
       clipPathUnits="userSpaceOnUse"><path
         id="path298"
         d="M 0,327 H 530 V 519 H 0 Z" /></clipPath><clipPath
       id="clipPath310"
       clipPathUnits="userSpaceOnUse"><path
         id="path308"
         d="M 0,327 H 530 V 519 H 0 Z" /></clipPath><clipPath
       id="clipPath324"
       clipPathUnits="userSpaceOnUse"><path
         id="path322"
         d="M 0,164 H 530 V 356 H 0 Z" /></clipPath><clipPath
       id="clipPath336"
       clipPathUnits="userSpaceOnUse"><path
         id="path334"
         d="M 34,213 H 519 V 314 H 34 Z" /></clipPath><clipPath
       id="clipPath346"
       clipPathUnits="userSpaceOnUse"><path
         id="path344"
         d="M 34,213 H 519 V 314 H 34 Z" /></clipPath><clipPath
       id="clipPath356"
       clipPathUnits="userSpaceOnUse"><path
         id="path354"
         d="M 34,213 H 519 V 314 H 34 Z" /></clipPath><clipPath
       id="clipPath366"
       clipPathUnits="userSpaceOnUse"><path
         id="path364"
         d="M 0,164 H 530 V 356 H 0 Z" /></clipPath><clipPath
       id="clipPath378"
       clipPathUnits="userSpaceOnUse"><path
         id="path376"
         d="M 0,164 H 530 V 356 H 0 Z" /></clipPath><clipPath
       id="clipPath392"
       clipPathUnits="userSpaceOnUse"><path
         id="path390"
         d="M 0,164 H 530 V 356 H 0 Z" /></clipPath><clipPath
       id="clipPath406"
       clipPathUnits="userSpaceOnUse"><path
         id="path404"
         d="M 0,164 H 530 V 356 H 0 Z" /></clipPath><clipPath
       id="clipPath420"
       clipPathUnits="userSpaceOnUse"><path
         id="path418"
         d="M 0,164 H 530 V 356 H 0 Z" /></clipPath><clipPath
       id="clipPath434"
       clipPathUnits="userSpaceOnUse"><path
         id="path432"
         d="M 0,164 H 530 V 356 H 0 Z" /></clipPath><clipPath
       id="clipPath448"
       clipPathUnits="userSpaceOnUse"><path
         id="path446"
         d="M 0,164 H 530 V 356 H 0 Z" /></clipPath><clipPath
       id="clipPath462"
       clipPathUnits="userSpaceOnUse"><path
         id="path460"
         d="M 0,164 H 530 V 356 H 0 Z" /></clipPath><clipPath
       id="clipPath476"
       clipPathUnits="userSpaceOnUse"><path
         id="path474"
         d="M 0,164 H 530 V 356 H 0 Z" /></clipPath><clipPath
       id="clipPath490"
       clipPathUnits="userSpaceOnUse"><path
         id="path488"
         d="M 0,164 H 530 V 356 H 0 Z" /></clipPath><clipPath
       id="clipPath504"
       clipPathUnits="userSpaceOnUse"><path
         id="path502"
         d="M 0,164 H 530 V 356 H 0 Z" /></clipPath><clipPath
       id="clipPath518"
       clipPathUnits="userSpaceOnUse"><path
         id="path516"
         d="M 0,164 H 530 V 356 H 0 Z" /></clipPath><clipPath
       id="clipPath532"
       clipPathUnits="userSpaceOnUse"><path
         id="path530"
         d="M 0,164 H 530 V 356 H 0 Z" /></clipPath><clipPath
       id="clipPath546"
       clipPathUnits="userSpaceOnUse"><path
         id="path544"
         d="M 0,164 H 530 V 356 H 0 Z" /></clipPath><clipPath
       id="clipPath556"
       clipPathUnits="userSpaceOnUse"><path
         id="path554"
         d="M 0,164 H 530 V 356 H 0 Z" /></clipPath><clipPath
       id="clipPath570"
       clipPathUnits="userSpaceOnUse"><path
         id="path568"
         d="M 0,164 H 530 V 356 H 0 Z" /></clipPath><clipPath
       id="clipPath580"
       clipPathUnits="userSpaceOnUse"><path
         id="path578"
         d="M 0,164 H 530 V 356 H 0 Z" /></clipPath><clipPath
       id="clipPath594"
       clipPathUnits="userSpaceOnUse"><path
         id="path592"
         d="M 0,164 H 530 V 356 H 0 Z" /></clipPath><clipPath
       id="clipPath604"
       clipPathUnits="userSpaceOnUse"><path
         id="path602"
         d="M 0,164 H 530 V 356 H 0 Z" /></clipPath><clipPath
       id="clipPath618"
       clipPathUnits="userSpaceOnUse"><path
         id="path616"
         d="M 0,0 H 530 V 193 H 0 Z" /></clipPath><clipPath
       id="clipPath630"
       clipPathUnits="userSpaceOnUse"><path
         id="path628"
         d="M 34,49 H 519 V 150 H 34 Z" /></clipPath><clipPath
       id="clipPath640"
       clipPathUnits="userSpaceOnUse"><path
         id="path638"
         d="M 34,49 H 519 V 150 H 34 Z" /></clipPath><clipPath
       id="clipPath650"
       clipPathUnits="userSpaceOnUse"><path
         id="path648"
         d="M 34,49 H 519 V 150 H 34 Z" /></clipPath><clipPath
       id="clipPath660"
       clipPathUnits="userSpaceOnUse"><path
         id="path658"
         d="M 0,0 H 530 V 193 H 0 Z" /></clipPath><clipPath
       id="clipPath672"
       clipPathUnits="userSpaceOnUse"><path
         id="path670"
         d="M 0,0 H 530 V 193 H 0 Z" /></clipPath><clipPath
       id="clipPath686"
       clipPathUnits="userSpaceOnUse"><path
         id="path684"
         d="M 0,0 H 530 V 193 H 0 Z" /></clipPath><clipPath
       id="clipPath700"
       clipPathUnits="userSpaceOnUse"><path
         id="path698"
         d="M 0,0 H 530 V 193 H 0 Z" /></clipPath><clipPath
       id="clipPath714"
       clipPathUnits="userSpaceOnUse"><path
         id="path712"
         d="M 0,0 H 530 V 193 H 0 Z" /></clipPath><clipPath
       id="clipPath728"
       clipPathUnits="userSpaceOnUse"><path
         id="path726"
         d="M 0,0 H 530 V 193 H 0 Z" /></clipPath><clipPath
       id="clipPath742"
       clipPathUnits="userSpaceOnUse"><path
         id="path740"
         d="M 0,0 H 530 V 193 H 0 Z" /></clipPath><clipPath
       id="clipPath756"
       clipPathUnits="userSpaceOnUse"><path
         id="path754"
         d="M 0,0 H 530 V 193 H 0 Z" /></clipPath><clipPath
       id="clipPath770"
       clipPathUnits="userSpaceOnUse"><path
         id="path768"
         d="M 0,0 H 530 V 193 H 0 Z" /></clipPath><clipPath
       id="clipPath784"
       clipPathUnits="userSpaceOnUse"><path
         id="path782"
         d="M 0,0 H 530 V 193 H 0 Z" /></clipPath><clipPath
       id="clipPath798"
       clipPathUnits="userSpaceOnUse"><path
         id="path796"
         d="M 0,0 H 530 V 193 H 0 Z" /></clipPath><clipPath
       id="clipPath812"
       clipPathUnits="userSpaceOnUse"><path
         id="path810"
         d="M 0,0 H 530 V 193 H 0 Z" /></clipPath><clipPath
       id="clipPath826"
       clipPathUnits="userSpaceOnUse"><path
         id="path824"
         d="M 0,0 H 530 V 193 H 0 Z" /></clipPath><clipPath
       id="clipPath840"
       clipPathUnits="userSpaceOnUse"><path
         id="path838"
         d="M 0,0 H 530 V 193 H 0 Z" /></clipPath><clipPath
       id="clipPath850"
       clipPathUnits="userSpaceOnUse"><path
         id="path848"
         d="M 0,0 H 530 V 193 H 0 Z" /></clipPath><clipPath
       id="clipPath864"
       clipPathUnits="userSpaceOnUse"><path
         id="path862"
         d="M 0,0 H 530 V 193 H 0 Z" /></clipPath><clipPath
       id="clipPath874"
       clipPathUnits="userSpaceOnUse"><path
         id="path872"
         d="M 0,0 H 530 V 193 H 0 Z" /></clipPath><clipPath
       id="clipPath888"
       clipPathUnits="userSpaceOnUse"><path
         id="path886"
         d="M 0,0 H 530 V 193 H 0 Z" /></clipPath><clipPath
       id="clipPath898"
       clipPathUnits="userSpaceOnUse"><path
         id="path896"
         d="M 0,0 H 530 V 193 H 0 Z" /></clipPath></defs><g
     transform="matrix(1.3333333,0,0,-1.3333333,0,692)"
     id="g10"><g
       id="g12" /><g
       id="g14"><g
         clip-path="url(#clipPath20)"
         id="g16"><path
           id="path22"
           style="fill:#ffffff;fill-opacity:1;fill-rule:nonzero;stroke:none"
           d="M 0,519 H 530 V 0 H 0 Z" /></g></g><g
       id="g24"><g
         clip-path="url(#clipPath30)"
         id="g26"><g
           transform="matrix(7.874016e-5,0,0,-7.874016e-5,34.5,476.5)"
           id="g32"><path
             id="path34"
             style="fill:none;stroke:#d9d9d9;stroke-width:9525;stroke-linecap:butt;stroke-linejoin:round;stroke-miterlimit:10;stroke-dasharray:none;stroke-opacity:1"
             d="M 0,952500 H 6159500 M 0,635000 H 6159500 M 0,317500 H 6159500 M 0,0 h 6159500" /></g></g></g><g
       id="g36"><g
         clip-path="url(#clipPath42)"
         id="g38"><path
           id="path44"
           style="fill:#5c7cfb;fill-opacity:1;fill-rule:nonzero;stroke:none"
           d="M 49,412 H 64 V 376 H 49 Z m 81,12 h 14 v -48 h -14 z m 81,-32 h 14 v -16 h -14 z m 81,3 h 14 v -19 h -14 z m 81,65 h 14 v -84 h -14 z m 81,-35 h 14 v -49 h -14 z" /></g></g><g
       id="g46"><g
         clip-path="url(#clipPath52)"
         id="g48"><path
           id="path54"
           style="fill:#d9d9d9;fill-opacity:1;fill-rule:nonzero;stroke:none"
           d="M 67,447 H 81 V 376 H 67 Z m 81,-18 h 14 v -53 h -14 z m 81,17 h 14 v -70 h -14 z m 81,-2 h 14 v -68 h -14 z m 81,-30 h 14 v -38 h -14 z m 81,5 h 14 v -43 h -14 z" /></g></g><g
       id="g56"><g
         clip-path="url(#clipPath62)"
         id="g58"><path
           id="path64"
           style="fill:#a489ec;fill-opacity:1;fill-rule:nonzero;stroke:none"
           d="M 85,396 H 99 V 376 H 85 Z m 81,6 h 14 v -26 h -14 z m 81,15 h 14 v -41 h -14 z m 81,-1 h 14 v -40 h -14 z m 81,-36 h 14 v -4 h -14 z m 80,31 h 15 v -35 h -15 z" /></g></g><g
       id="g66"><g
         clip-path="url(#clipPath72)"
         id="g68"><g
           transform="matrix(7.874016e-5,0,0,-7.874016e-5,34.5,376.5)"
           id="g74"><path
             id="path76"
             style="fill:none;stroke:#d9d9d9;stroke-width:9525;stroke-linecap:butt;stroke-linejoin:round;stroke-miterlimit:10;stroke-dasharray:none;stroke-opacity:1"
             d="M 0,0 6159500,1" /></g></g></g><g
       id="g78"><g
         clip-path="url(#clipPath84)"
         id="g80"><g
           transform="translate(13.84,-146)"
           id="g86"><text
             id="text90"
             style="font-variant:normal;font-weight:normal;font-size:14px;font-family:Corbel;-inkscape-font-specification:Corbel;writing-mode:lr-tb;fill:#000000;fill-opacity:1;fill-rule:nonzero;stroke:none"
             transform="matrix(1,0,0,-1,0,519)"><tspan
               id="tspan88"
               y="0"
               x="0">0</tspan></text>
</g></g></g><g
       id="g92"><g
         clip-path="url(#clipPath98)"
         id="g94"><g
           transform="translate(6.69,-121)"
           id="g100"><text
             id="text104"
             style="font-variant:normal;font-weight:normal;font-size:14px;font-family:Corbel;-inkscape-font-specification:Corbel;writing-mode:lr-tb;fill:#000000;fill-opacity:1;fill-rule:nonzero;stroke:none"
             transform="matrix(1,0,0,-1,0,519)"><tspan
               id="tspan102"
               y="0"
               x="0 7">20</tspan></text>
</g></g></g><g
       id="g106"><g
         clip-path="url(#clipPath112)"
         id="g108"><g
           transform="translate(6.61,-96)"
           id="g114"><text
             id="text118"
             style="font-variant:normal;font-weight:normal;font-size:14px;font-family:Corbel;-inkscape-font-specification:Corbel;writing-mode:lr-tb;fill:#000000;fill-opacity:1;fill-rule:nonzero;stroke:none"
             transform="matrix(1,0,0,-1,0,519)"><tspan
               id="tspan116"
               y="0"
               x="0 7">40</tspan></text>
</g></g></g><g
       id="g120"><g
         clip-path="url(#clipPath126)"
         id="g122"><g
           transform="translate(6.5,-71)"
           id="g128"><text
             id="text132"
             style="font-variant:normal;font-weight:normal;font-size:14px;font-family:Corbel;-inkscape-font-specification:Corbel;writing-mode:lr-tb;fill:#000000;fill-opacity:1;fill-rule:nonzero;stroke:none"
             transform="matrix(1,0,0,-1,0,519)"><tspan
               id="tspan130"
               y="0"
               x="0 7">60</tspan></text>
</g></g></g><g
       id="g134"><g
         clip-path="url(#clipPath140)"
         id="g136"><g
           transform="translate(6.634961,-46)"
           id="g142"><text
             id="text146"
             style="font-variant:normal;font-weight:normal;font-size:14px;font-family:Corbel;-inkscape-font-specification:Corbel;writing-mode:lr-tb;fill:#000000;fill-opacity:1;fill-rule:nonzero;stroke:none"
             transform="matrix(1,0,0,-1,0,519)"><tspan
               id="tspan144"
               y="0"
               x="0 7">80</tspan></text>
</g></g></g><g
       id="g148"><g
         clip-path="url(#clipPath154)"
         id="g150"><g
           transform="translate(37.41102,-165)"
           id="g156"><text
             id="text160"
             style="font-variant:normal;font-weight:normal;font-size:14px;font-family:Corbel;-inkscape-font-specification:Corbel;writing-mode:lr-tb;fill:#000000;fill-opacity:1;fill-rule:nonzero;stroke:none"
             transform="matrix(1,0,0,-1,0,519)"><tspan
               id="tspan158"
               y="0"
               x="0 10.0002 17.0044 20.9986 28.996799 32.991001 39.995201 43.989399 45.995602 52.999802 56.993999 63.998199">Natural Flow</tspan></text>
</g></g></g><g
       id="g162"><g
         clip-path="url(#clipPath168)"
         id="g164"><g
           transform="translate(114.9868,-165)"
           id="g170"><text
             id="text174"
             style="font-variant:normal;font-weight:normal;font-size:14px;font-family:Corbel;-inkscape-font-specification:Corbel;writing-mode:lr-tb;fill:#000000;fill-opacity:1;fill-rule:nonzero;stroke:none"
             transform="matrix(1,0,0,-1,0,519)"><tspan
               id="tspan172"
               y="0"
               x="0 7.9995999 15.0052 23.004801 29.002399 37.001999 40.003601 47.009201 55.008801 62.0144 69.019997 75.017601">Engagingness</tspan></text>
</g></g></g><g
       id="g176"><g
         clip-path="url(#clipPath182)"
         id="g178"><g
           transform="translate(222.5476,-165)"
           id="g184"><text
             id="text188"
             style="font-variant:normal;font-weight:normal;font-size:14px;font-family:Corbel;-inkscape-font-specification:Corbel;writing-mode:lr-tb;fill:#000000;fill-opacity:1;fill-rule:nonzero;stroke:none"
             transform="matrix(1,0,0,-1,0,519)"><tspan
               id="tspan186"
               y="0"
               x="0 7.9995999 15.0052 20.008801">Turn</tspan></text>
</g></g></g><g
       id="g190"><g
         clip-path="url(#clipPath196)"
         id="g192"><g
           transform="translate(206.4575,-182)"
           id="g198"><text
             id="text202"
             style="font-variant:normal;font-weight:normal;font-size:14px;font-family:Corbel;-inkscape-font-specification:Corbel;writing-mode:lr-tb;fill:#000000;fill-opacity:1;fill-rule:nonzero;stroke:none"
             transform="matrix(1,0,0,-1,0,519)"><tspan
               id="tspan200"
               y="0"
               x="0 7.9995999 15.0052 18.0068 25.0124 32.018002 39.023602 46.029202 52.026798">Relevance</tspan></text>
</g></g></g><g
       id="g204"><g
         clip-path="url(#clipPath210)"
         id="g206"><g
           transform="translate(285.7857,-165)"
           id="g212"><text
             id="text216"
             style="font-variant:normal;font-weight:normal;font-size:14px;font-family:Corbel;-inkscape-font-specification:Corbel;writing-mode:lr-tb;fill:#000000;fill-opacity:1;fill-rule:nonzero;stroke:none"
             transform="matrix(1,0,0,-1,0,519)"><tspan
               id="tspan214"
               y="0"
               x="0 7.9995999 15.9992 23.004801 30.010401 35.014 42.0196 49.0252 55.0228">Coherence</tspan></text>
</g></g></g><g
       id="g218"><g
         clip-path="url(#clipPath224)"
         id="g220"><g
           transform="translate(372.1339,-165)"
           id="g226"><text
             id="text230"
             style="font-variant:normal;font-weight:normal;font-size:14px;font-family:Corbel;-inkscape-font-specification:Corbel;writing-mode:lr-tb;fill:#000000;fill-opacity:1;fill-rule:nonzero;stroke:none"
             transform="matrix(1,0,0,-1,0,519)"><tspan
               id="tspan228"
               y="0"
               x="0 9.0005999 13.0032 19.007799 26.006399 31.003 35.999599 40.002201 44.998798">Diversity</tspan></text>
</g></g></g><g
       id="g232"><g
         clip-path="url(#clipPath238)"
         id="g234"><g
           transform="translate(457.7395,-165)"
           id="g240"><text
             id="text244"
             style="font-variant:normal;font-weight:normal;font-size:14px;font-family:Corbel;-inkscape-font-specification:Corbel;writing-mode:lr-tb;fill:#000000;fill-opacity:1;fill-rule:nonzero;stroke:none"
             transform="matrix(1,0,0,-1,0,519)"><tspan
               id="tspan242"
               y="0"
               x="0 10.0002 17.0044 24.0086 28.0028 35.007 38.007198">Overall</tspan></text>
</g></g></g><g
       id="g246"><g
         clip-path="url(#clipPath252)"
         id="g248"><path
           id="path254"
           style="fill:#5c7cfb;fill-opacity:1;fill-rule:nonzero;stroke:none"
           d="m 78,467 h 7 v -7 h -7 z" /></g></g><g
       id="g256"><g
         clip-path="url(#clipPath262)"
         id="g258"><g
           transform="translate(88.88449,-59)"
           id="g264"><text
             id="text268"
             style="font-variant:normal;font-weight:normal;font-size:14px;font-family:Corbel;-inkscape-font-specification:Corbel;writing-mode:lr-tb;fill:#000000;fill-opacity:1;fill-rule:nonzero;stroke:none"
             transform="matrix(1,0,0,-1,0,519)"><tspan
               id="tspan266"
               y="0"
               x="0 9.0005999 13.0032 19.007799 23.010401 30.009001 38.015598 46.022202 54.028801 57.023399 61.026001 69.0326 76.031197 81.027802 86.024399">DialogCC (ours)</tspan></text>
</g></g></g><g
       id="g270"><g
         clip-path="url(#clipPath276)"
         id="g272"><path
           id="path278"
           style="fill:#d9d9d9;fill-opacity:1;fill-rule:nonzero;stroke:none"
           d="m 190,467 h 7 v -7 h -7 z" /></g></g><g
       id="g280"><g
         clip-path="url(#clipPath286)"
         id="g282"><g
           transform="translate(200.938,-59)"
           id="g288"><text
             id="text292"
             style="font-variant:normal;font-weight:normal;font-size:14px;font-family:Corbel;-inkscape-font-specification:Corbel;writing-mode:lr-tb;fill:#000000;fill-opacity:1;fill-rule:nonzero;stroke:none"
             transform="matrix(1,0,0,-1,0,519)"><tspan
               id="tspan290"
               y="0"
               x="0 7.9995999 11.0012">Tie</tspan></text>
</g></g></g><g
       id="g294"><g
         clip-path="url(#clipPath300)"
         id="g296"><path
           id="path302"
           style="fill:#a489ec;fill-opacity:1;fill-rule:nonzero;stroke:none"
           d="m 229,467 h 8 v -7 h -8 z" /></g></g><g
       id="g304"><g
         clip-path="url(#clipPath310)"
         id="g306"><g
           transform="translate(240.5813,-59)"
           id="g312"><text
             id="text316"
             style="font-variant:normal;font-weight:normal;font-size:14px;font-family:Corbel;-inkscape-font-specification:Corbel;writing-mode:lr-tb;fill:#000000;fill-opacity:1;fill-rule:nonzero;stroke:none"
             transform="matrix(1,0,0,-1,0,519)"><tspan
               id="tspan314"
               y="0"
               x="0 7.9995999 15.0052 23.004801 28.0084 35.014 43.013599 51.013199 58.018799">PhotoChat</tspan></text>
</g></g></g><g
       id="g318"><g
         clip-path="url(#clipPath324)"
         id="g320"><g
           transform="matrix(7.874016e-5,0,0,-7.874016e-5,34.5,313.5)"
           id="g326"><path
             id="path328"
             style="fill:none;stroke:#d9d9d9;stroke-width:9525;stroke-linecap:butt;stroke-linejoin:round;stroke-miterlimit:10;stroke-dasharray:none;stroke-opacity:1"
             d="M 0,965200 H 6159500 M 0,635000 H 6159500 M 0,317500 H 6159500 M 0,0 h 6159500" /></g></g></g><g
       id="g330"><g
         clip-path="url(#clipPath336)"
         id="g332"><path
           id="path338"
           style="fill:#5c7cfb;fill-opacity:1;fill-rule:nonzero;stroke:none"
           d="M 49,289 H 64 V 213 H 49 Z m 81,-5 h 14 v -71 h -14 z m 81,-16 h 14 v -55 h -14 z m 81,-7 h 14 v -48 h -14 z m 81,31 h 14 v -79 h -14 z m 81,0 h 14 v -79 h -14 z" /></g></g><g
       id="g340"><g
         clip-path="url(#clipPath346)"
         id="g342"><path
           id="path348"
           style="fill:#d9d9d9;fill-opacity:1;fill-rule:nonzero;stroke:none"
           d="M 67,256 H 81 V 213 H 67 Z m 81,-13 h 14 v -30 h -14 z m 81,22 h 14 v -52 h -14 z m 81,1 h 14 v -53 h -14 z m 81,-38 h 14 v -15 h -14 z m 81,15 h 14 v -30 h -14 z" /></g></g><g
       id="g350"><g
         clip-path="url(#clipPath356)"
         id="g352"><path
           id="path358"
           style="fill:#1dc997;fill-opacity:1;fill-rule:nonzero;stroke:none"
           d="m 85,219 h 14 v -6 H 85 Z m 81,19 h 14 v -25 h -14 z m 81,-8 h 14 v -17 h -14 z m 81,8 h 14 v -25 h -14 z m 81,5 h 14 v -30 h -14 z m 80,-13 h 15 v -17 h -15 z" /></g></g><g
       id="g360"><g
         clip-path="url(#clipPath366)"
         id="g362"><g
           transform="matrix(7.874016e-5,0,0,-7.874016e-5,34.5,212.5)"
           id="g368"><path
             id="path370"
             style="fill:none;stroke:#d9d9d9;stroke-width:9525;stroke-linecap:butt;stroke-linejoin:round;stroke-miterlimit:10;stroke-dasharray:none;stroke-opacity:1"
             d="M 0,0 6159500,1" /></g></g></g><g
       id="g372"><g
         clip-path="url(#clipPath378)"
         id="g374"><g
           transform="translate(13.84,-310)"
           id="g380"><text
             id="text384"
             style="font-variant:normal;font-weight:normal;font-size:14px;font-family:Corbel;-inkscape-font-specification:Corbel;writing-mode:lr-tb;fill:#000000;fill-opacity:1;fill-rule:nonzero;stroke:none"
             transform="matrix(1,0,0,-1,0,519)"><tspan
               id="tspan382"
               y="0"
               x="0">0</tspan></text>
</g></g></g><g
       id="g386"><g
         clip-path="url(#clipPath392)"
         id="g388"><g
           transform="translate(6.69,-284)"
           id="g394"><text
             id="text398"
             style="font-variant:normal;font-weight:normal;font-size:14px;font-family:Corbel;-inkscape-font-specification:Corbel;writing-mode:lr-tb;fill:#000000;fill-opacity:1;fill-rule:nonzero;stroke:none"
             transform="matrix(1,0,0,-1,0,519)"><tspan
               id="tspan396"
               y="0"
               x="0 7">20</tspan></text>
</g></g></g><g
       id="g400"><g
         clip-path="url(#clipPath406)"
         id="g402"><g
           transform="translate(6.61,-259)"
           id="g408"><text
             id="text412"
             style="font-variant:normal;font-weight:normal;font-size:14px;font-family:Corbel;-inkscape-font-specification:Corbel;writing-mode:lr-tb;fill:#000000;fill-opacity:1;fill-rule:nonzero;stroke:none"
             transform="matrix(1,0,0,-1,0,519)"><tspan
               id="tspan410"
               y="0"
               x="0 7">40</tspan></text>
</g></g></g><g
       id="g414"><g
         clip-path="url(#clipPath420)"
         id="g416"><g
           transform="translate(6.5,-234)"
           id="g422"><text
             id="text426"
             style="font-variant:normal;font-weight:normal;font-size:14px;font-family:Corbel;-inkscape-font-specification:Corbel;writing-mode:lr-tb;fill:#000000;fill-opacity:1;fill-rule:nonzero;stroke:none"
             transform="matrix(1,0,0,-1,0,519)"><tspan
               id="tspan424"
               y="0"
               x="0 7">60</tspan></text>
</g></g></g><g
       id="g428"><g
         clip-path="url(#clipPath434)"
         id="g430"><g
           transform="translate(6.634961,-209)"
           id="g436"><text
             id="text440"
             style="font-variant:normal;font-weight:normal;font-size:14px;font-family:Corbel;-inkscape-font-specification:Corbel;writing-mode:lr-tb;fill:#000000;fill-opacity:1;fill-rule:nonzero;stroke:none"
             transform="matrix(1,0,0,-1,0,519)"><tspan
               id="tspan438"
               y="0"
               x="0 7">80</tspan></text>
</g></g></g><g
       id="g442"><g
         clip-path="url(#clipPath448)"
         id="g444"><g
           transform="translate(37.41102,-328)"
           id="g450"><text
             id="text454"
             style="font-variant:normal;font-weight:normal;font-size:14px;font-family:Corbel;-inkscape-font-specification:Corbel;writing-mode:lr-tb;fill:#000000;fill-opacity:1;fill-rule:nonzero;stroke:none"
             transform="matrix(1,0,0,-1,0,519)"><tspan
               id="tspan452"
               y="0"
               x="0 10.0002 17.0044 20.9986 28.996799 32.991001 39.995201 43.989399 45.995602 52.999802 56.993999 63.998199">Natural Flow</tspan></text>
</g></g></g><g
       id="g456"><g
         clip-path="url(#clipPath462)"
         id="g458"><g
           transform="translate(114.9868,-328)"
           id="g464"><text
             id="text468"
             style="font-variant:normal;font-weight:normal;font-size:14px;font-family:Corbel;-inkscape-font-specification:Corbel;writing-mode:lr-tb;fill:#000000;fill-opacity:1;fill-rule:nonzero;stroke:none"
             transform="matrix(1,0,0,-1,0,519)"><tspan
               id="tspan466"
               y="0"
               x="0 7.9995999 15.0052 23.004801 29.002399 37.001999 40.003601 47.009201 55.008801 62.0144 69.019997 75.017601">Engagingness</tspan></text>
</g></g></g><g
       id="g470"><g
         clip-path="url(#clipPath476)"
         id="g472"><g
           transform="translate(222.5476,-328)"
           id="g478"><text
             id="text482"
             style="font-variant:normal;font-weight:normal;font-size:14px;font-family:Corbel;-inkscape-font-specification:Corbel;writing-mode:lr-tb;fill:#000000;fill-opacity:1;fill-rule:nonzero;stroke:none"
             transform="matrix(1,0,0,-1,0,519)"><tspan
               id="tspan480"
               y="0"
               x="0 7.9995999 15.0052 20.008801">Turn</tspan></text>
</g></g></g><g
       id="g484"><g
         clip-path="url(#clipPath490)"
         id="g486"><g
           transform="translate(206.4575,-345)"
           id="g492"><text
             id="text496"
             style="font-variant:normal;font-weight:normal;font-size:14px;font-family:Corbel;-inkscape-font-specification:Corbel;writing-mode:lr-tb;fill:#000000;fill-opacity:1;fill-rule:nonzero;stroke:none"
             transform="matrix(1,0,0,-1,0,519)"><tspan
               id="tspan494"
               y="0"
               x="0 7.9995999 15.0052 18.0068 25.0124 32.018002 39.023602 46.029202 52.026798">Relevance</tspan></text>
</g></g></g><g
       id="g498"><g
         clip-path="url(#clipPath504)"
         id="g500"><g
           transform="translate(282.0581,-328)"
           id="g506"><text
             id="text510"
             style="font-variant:normal;font-weight:normal;font-size:14px;font-family:Corbel;-inkscape-font-specification:Corbel;writing-mode:lr-tb;fill:#000000;fill-opacity:1;fill-rule:nonzero;stroke:none"
             transform="matrix(1,0,0,-1,0,519)"><tspan
               id="tspan508"
               y="0"
               x="0 7.9995999 15.9992 23.004801 29.002399 32.004002 38.001598 43.005199 49.0028 57.002399 63">Consistency</tspan></text>
</g></g></g><g
       id="g512"><g
         clip-path="url(#clipPath518)"
         id="g514"><g
           transform="translate(372.1339,-328)"
           id="g520"><text
             id="text524"
             style="font-variant:normal;font-weight:normal;font-size:14px;font-family:Corbel;-inkscape-font-specification:Corbel;writing-mode:lr-tb;fill:#000000;fill-opacity:1;fill-rule:nonzero;stroke:none"
             transform="matrix(1,0,0,-1,0,519)"><tspan
               id="tspan522"
               y="0"
               x="0 9.0005999 13.0032 19.007799 26.006399 31.003 35.999599 40.002201 44.998798">Diversity</tspan></text>
</g></g></g><g
       id="g526"><g
         clip-path="url(#clipPath532)"
         id="g528"><g
           transform="translate(457.7395,-328)"
           id="g534"><text
             id="text538"
             style="font-variant:normal;font-weight:normal;font-size:14px;font-family:Corbel;-inkscape-font-specification:Corbel;writing-mode:lr-tb;fill:#000000;fill-opacity:1;fill-rule:nonzero;stroke:none"
             transform="matrix(1,0,0,-1,0,519)"><tspan
               id="tspan536"
               y="0"
               x="0 10.0002 17.0044 24.0086 28.0028 35.007 38.007198">Overall</tspan></text>
</g></g></g><g
       id="g540"><g
         clip-path="url(#clipPath546)"
         id="g542"><path
           id="path548"
           style="fill:#5c7cfb;fill-opacity:1;fill-rule:nonzero;stroke:none"
           d="m 75,304 h 7 v -8 h -7 z" /></g></g><g
       id="g550"><g
         clip-path="url(#clipPath556)"
         id="g552"><g
           transform="translate(85.68213,-222)"
           id="g558"><text
             id="text562"
             style="font-variant:normal;font-weight:normal;font-size:14px;font-family:Corbel;-inkscape-font-specification:Corbel;writing-mode:lr-tb;fill:#000000;fill-opacity:1;fill-rule:nonzero;stroke:none"
             transform="matrix(1,0,0,-1,0,519)"><tspan
               id="tspan560"
               y="0"
               x="0 9.0005999 13.0032 19.007799 23.010401 30.009001 38.015598 46.022202 54.028801 57.023399 61.026001 69.0326 76.031197 81.027802 86.024399">DialogCC (ours)</tspan></text>
</g></g></g><g
       id="g564"><g
         clip-path="url(#clipPath570)"
         id="g566"><path
           id="path572"
           style="fill:#d9d9d9;fill-opacity:1;fill-rule:nonzero;stroke:none"
           d="m 188,304 h 8 v -8 h -8 z" /></g></g><g
       id="g574"><g
         clip-path="url(#clipPath580)"
         id="g576"><g
           transform="translate(199.3361,-222)"
           id="g582"><text
             id="text586"
             style="font-variant:normal;font-weight:normal;font-size:14px;font-family:Corbel;-inkscape-font-specification:Corbel;writing-mode:lr-tb;fill:#000000;fill-opacity:1;fill-rule:nonzero;stroke:none"
             transform="matrix(1,0,0,-1,0,519)"><tspan
               id="tspan584"
               y="0"
               x="0 7.9995999 11.0012">Tie</tspan></text>
</g></g></g><g
       id="g588"><g
         clip-path="url(#clipPath594)"
         id="g590"><path
           id="path596"
           style="fill:#1dc997;fill-opacity:1;fill-rule:nonzero;stroke:none"
           d="m 229,304 h 8 v -8 h -8 z" /></g></g><g
       id="g598"><g
         clip-path="url(#clipPath604)"
         id="g600"><g
           transform="translate(240.5798,-222)"
           id="g606"><text
             id="text610"
             style="font-variant:normal;font-weight:normal;font-size:14px;font-family:Corbel;-inkscape-font-specification:Corbel;writing-mode:lr-tb;fill:#000000;fill-opacity:1;fill-rule:nonzero;stroke:none"
             transform="matrix(1,0,0,-1,0,519)"><tspan
               id="tspan608"
               y="0"
               x="0 11.9994 23.004801 32.008202 36.013599 43.014999 46.012402 53.013802">MMDialog</tspan></text>
</g></g></g><g
       id="g612"><g
         clip-path="url(#clipPath618)"
         id="g614"><g
           transform="matrix(7.874016e-5,0,0,-7.874016e-5,34.5,149.5)"
           id="g620"><path
             id="path622"
             style="fill:none;stroke:#d9d9d9;stroke-width:9525;stroke-linecap:butt;stroke-linejoin:round;stroke-miterlimit:10;stroke-dasharray:none;stroke-opacity:1"
             d="M 0,952500 H 6159500 M 0,635000 H 6159500 M 0,317500 H 6159500 M 0,0 h 6159500" /></g></g></g><g
       id="g624"><g
         clip-path="url(#clipPath630)"
         id="g626"><path
           id="path632"
           style="fill:#5c7cfb;fill-opacity:1;fill-rule:nonzero;stroke:none"
           d="M 49,99 H 64 V 49 H 49 Z m 81,1 h 14 V 49 h -14 z m 81,-8 h 14 V 49 h -14 z m 81,15 h 14 V 49 h -14 z m 81,31 h 14 V 49 h -14 z m 81,-22 h 14 V 49 h -14 z" /></g></g><g
       id="g634"><g
         clip-path="url(#clipPath640)"
         id="g636"><path
           id="path642"
           style="fill:#d9d9d9;fill-opacity:1;fill-rule:nonzero;stroke:none"
           d="M 67,112 H 81 V 49 H 67 Z m 81,-12 h 14 V 49 h -14 z m 81,20 h 14 V 49 h -14 z m 81,-19 h 14 V 49 h -14 z m 81,-17 h 14 V 49 h -14 z m 81,13 h 14 V 49 h -14 z" /></g></g><g
       id="g644"><g
         clip-path="url(#clipPath650)"
         id="g646"><path
           id="path652"
           style="fill:#ffc31b;fill-opacity:1;fill-rule:nonzero;stroke:none"
           d="M 85,63 H 99 V 49 H 85 Z m 81,10 h 14 V 49 h -14 z m 81,-12 h 14 V 49 h -14 z m 81,5 h 14 V 49 h -14 z m 81,-14 h 14 v -3 h -14 z m 80,9 h 15 V 49 h -15 z" /></g></g><g
       id="g654"><g
         clip-path="url(#clipPath660)"
         id="g656"><g
           transform="matrix(7.874016e-5,0,0,-7.874016e-5,34.5,49.5)"
           id="g662"><path
             id="path664"
             style="fill:none;stroke:#d9d9d9;stroke-width:9525;stroke-linecap:butt;stroke-linejoin:round;stroke-miterlimit:10;stroke-dasharray:none;stroke-opacity:1"
             d="M 0,0 6159500,1" /></g></g></g><g
       id="g666"><g
         clip-path="url(#clipPath672)"
         id="g668"><g
           transform="translate(13.84,-473)"
           id="g674"><text
             id="text678"
             style="font-variant:normal;font-weight:normal;font-size:14px;font-family:Corbel;-inkscape-font-specification:Corbel;writing-mode:lr-tb;fill:#000000;fill-opacity:1;fill-rule:nonzero;stroke:none"
             transform="matrix(1,0,0,-1,0,519)"><tspan
               id="tspan676"
               y="0"
               x="0">0</tspan></text>
</g></g></g><g
       id="g680"><g
         clip-path="url(#clipPath686)"
         id="g682"><g
           transform="translate(6.69,-448)"
           id="g688"><text
             id="text692"
             style="font-variant:normal;font-weight:normal;font-size:14px;font-family:Corbel;-inkscape-font-specification:Corbel;writing-mode:lr-tb;fill:#000000;fill-opacity:1;fill-rule:nonzero;stroke:none"
             transform="matrix(1,0,0,-1,0,519)"><tspan
               id="tspan690"
               y="0"
               x="0 7">20</tspan></text>
</g></g></g><g
       id="g694"><g
         clip-path="url(#clipPath700)"
         id="g696"><g
           transform="translate(6.61,-423)"
           id="g702"><text
             id="text706"
             style="font-variant:normal;font-weight:normal;font-size:14px;font-family:Corbel;-inkscape-font-specification:Corbel;writing-mode:lr-tb;fill:#000000;fill-opacity:1;fill-rule:nonzero;stroke:none"
             transform="matrix(1,0,0,-1,0,519)"><tspan
               id="tspan704"
               y="0"
               x="0 7">40</tspan></text>
</g></g></g><g
       id="g708"><g
         clip-path="url(#clipPath714)"
         id="g710"><g
           transform="translate(6.5,-398)"
           id="g716"><text
             id="text720"
             style="font-variant:normal;font-weight:normal;font-size:14px;font-family:Corbel;-inkscape-font-specification:Corbel;writing-mode:lr-tb;fill:#000000;fill-opacity:1;fill-rule:nonzero;stroke:none"
             transform="matrix(1,0,0,-1,0,519)"><tspan
               id="tspan718"
               y="0"
               x="0 7">60</tspan></text>
</g></g></g><g
       id="g722"><g
         clip-path="url(#clipPath728)"
         id="g724"><g
           transform="translate(6.634961,-373)"
           id="g730"><text
             id="text734"
             style="font-variant:normal;font-weight:normal;font-size:14px;font-family:Corbel;-inkscape-font-specification:Corbel;writing-mode:lr-tb;fill:#000000;fill-opacity:1;fill-rule:nonzero;stroke:none"
             transform="matrix(1,0,0,-1,0,519)"><tspan
               id="tspan732"
               y="0"
               x="0 7">80</tspan></text>
</g></g></g><g
       id="g736"><g
         clip-path="url(#clipPath742)"
         id="g738"><g
           transform="translate(37.41102,-492)"
           id="g744"><text
             id="text748"
             style="font-variant:normal;font-weight:normal;font-size:14px;font-family:Corbel;-inkscape-font-specification:Corbel;writing-mode:lr-tb;fill:#000000;fill-opacity:1;fill-rule:nonzero;stroke:none"
             transform="matrix(1,0,0,-1,0,519)"><tspan
               id="tspan746"
               y="0"
               x="0 10.0002 17.0044 20.9986 28.996799 32.991001 39.995201 43.989399 45.995602 52.999802 56.993999 63.998199">Natural Flow</tspan></text>
</g></g></g><g
       id="g750"><g
         clip-path="url(#clipPath756)"
         id="g752"><g
           transform="translate(114.9868,-492)"
           id="g758"><text
             id="text762"
             style="font-variant:normal;font-weight:normal;font-size:14px;font-family:Corbel;-inkscape-font-specification:Corbel;writing-mode:lr-tb;fill:#000000;fill-opacity:1;fill-rule:nonzero;stroke:none"
             transform="matrix(1,0,0,-1,0,519)"><tspan
               id="tspan760"
               y="0"
               x="0 7.9995999 15.0052 23.004801 29.002399 37.001999 40.003601 47.009201 55.008801 62.0144 69.019997 75.017601">Engagingness</tspan></text>
</g></g></g><g
       id="g764"><g
         clip-path="url(#clipPath770)"
         id="g766"><g
           transform="translate(222.5476,-492)"
           id="g772"><text
             id="text776"
             style="font-variant:normal;font-weight:normal;font-size:14px;font-family:Corbel;-inkscape-font-specification:Corbel;writing-mode:lr-tb;fill:#000000;fill-opacity:1;fill-rule:nonzero;stroke:none"
             transform="matrix(1,0,0,-1,0,519)"><tspan
               id="tspan774"
               y="0"
               x="0 7.9995999 15.0052 20.008801">Turn</tspan></text>
</g></g></g><g
       id="g778"><g
         clip-path="url(#clipPath784)"
         id="g780"><g
           transform="translate(206.4575,-509)"
           id="g786"><text
             id="text790"
             style="font-variant:normal;font-weight:normal;font-size:14px;font-family:Corbel;-inkscape-font-specification:Corbel;writing-mode:lr-tb;fill:#000000;fill-opacity:1;fill-rule:nonzero;stroke:none"
             transform="matrix(1,0,0,-1,0,519)"><tspan
               id="tspan788"
               y="0"
               x="0 7.9995999 15.0052 18.0068 25.0124 32.018002 39.023602 46.029202 52.026798">Relevance</tspan></text>
</g></g></g><g
       id="g792"><g
         clip-path="url(#clipPath798)"
         id="g794"><g
           transform="translate(282.0581,-492)"
           id="g800"><text
             id="text804"
             style="font-variant:normal;font-weight:normal;font-size:14px;font-family:Corbel;-inkscape-font-specification:Corbel;writing-mode:lr-tb;fill:#000000;fill-opacity:1;fill-rule:nonzero;stroke:none"
             transform="matrix(1,0,0,-1,0,519)"><tspan
               id="tspan802"
               y="0"
               x="0 7.9995999 15.9992 23.004801 29.002399 32.004002 38.001598 43.005199 49.0028 57.002399 63">Consistency</tspan></text>
</g></g></g><g
       id="g806"><g
         clip-path="url(#clipPath812)"
         id="g808"><g
           transform="translate(372.1339,-492)"
           id="g814"><text
             id="text818"
             style="font-variant:normal;font-weight:normal;font-size:14px;font-family:Corbel;-inkscape-font-specification:Corbel;writing-mode:lr-tb;fill:#000000;fill-opacity:1;fill-rule:nonzero;stroke:none"
             transform="matrix(1,0,0,-1,0,519)"><tspan
               id="tspan816"
               y="0"
               x="0 9.0005999 13.0032 19.007799 26.006399 31.003 35.999599 40.002201 44.998798">Diversity</tspan></text>
</g></g></g><g
       id="g820"><g
         clip-path="url(#clipPath826)"
         id="g822"><g
           transform="translate(457.7395,-492)"
           id="g828"><text
             id="text832"
             style="font-variant:normal;font-weight:normal;font-size:14px;font-family:Corbel;-inkscape-font-specification:Corbel;writing-mode:lr-tb;fill:#000000;fill-opacity:1;fill-rule:nonzero;stroke:none"
             transform="matrix(1,0,0,-1,0,519)"><tspan
               id="tspan830"
               y="0"
               x="0 10.0002 17.0044 24.0086 28.0028 35.007 38.007198">Overall</tspan></text>
</g></g></g><g
       id="g834"><g
         clip-path="url(#clipPath840)"
         id="g836"><path
           id="path842"
           style="fill:#5c7cfb;fill-opacity:1;fill-rule:nonzero;stroke:none"
           d="m 94,140 h 8 v -8 h -8 z" /></g></g><g
       id="g844"><g
         clip-path="url(#clipPath850)"
         id="g846"><g
           transform="translate(105.3166,-387)"
           id="g852"><text
             id="text856"
             style="font-variant:normal;font-weight:normal;font-size:14px;font-family:Corbel;-inkscape-font-specification:Corbel;writing-mode:lr-tb;fill:#000000;fill-opacity:1;fill-rule:nonzero;stroke:none"
             transform="matrix(1,0,0,-1,0,519)"><tspan
               id="tspan854"
               y="0"
               x="0 9.0005999 13.0032 19.007799 23.010401 30.009001 38.015598 46.022202 54.028801 57.023399 61.026001 69.0326 76.031197 81.027802 86.024399">DialogCC (ours)</tspan></text>
</g></g></g><g
       id="g858"><g
         clip-path="url(#clipPath864)"
         id="g860"><path
           id="path866"
           style="fill:#d9d9d9;fill-opacity:1;fill-rule:nonzero;stroke:none"
           d="m 207,140 h 8 v -8 h -8 z" /></g></g><g
       id="g868"><g
         clip-path="url(#clipPath874)"
         id="g870"><g
           transform="translate(218.6051,-387)"
           id="g876"><text
             id="text880"
             style="font-variant:normal;font-weight:normal;font-size:14px;font-family:Corbel;-inkscape-font-specification:Corbel;writing-mode:lr-tb;fill:#000000;fill-opacity:1;fill-rule:nonzero;stroke:none"
             transform="matrix(1,0,0,-1,0,519)"><tspan
               id="tspan878"
               y="0"
               x="0 7.9995999 11.0012">Tie</tspan></text>
</g></g></g><g
       id="g882"><g
         clip-path="url(#clipPath888)"
         id="g884"><path
           id="path890"
           style="fill:#ffc31b;fill-opacity:1;fill-rule:nonzero;stroke:none"
           d="m 248,140 h 8 v -8 h -8 z" /></g></g><g
       id="g892"><g
         clip-path="url(#clipPath898)"
         id="g894"><g
           transform="translate(259.4833,-387)"
           id="g900"><text
             id="text904"
             style="font-variant:normal;font-weight:normal;font-size:14px;font-family:Corbel;-inkscape-font-specification:Corbel;writing-mode:lr-tb;fill:#000000;fill-opacity:1;fill-rule:nonzero;stroke:none"
             transform="matrix(1,0,0,-1,0,519)"><tspan
               id="tspan902"
               y="0"
               x="0 11.9994 23.004801 32.008202">MMDD</tspan></text>
</g></g></g></g></svg>