<?xml version="1.0" encoding="UTF-8" standalone="no"?>
<svg
   xmlns:dc="http://purl.org/dc/elements/1.1/"
   xmlns:cc="http://creativecommons.org/ns#"
   xmlns:rdf="http://www.w3.org/1999/02/22-rdf-syntax-ns#"
   xmlns:svg="http://www.w3.org/2000/svg"
   xmlns="http://www.w3.org/2000/svg"
   viewBox="0 0 740 333.33334"
   height="333.33334"
   width="740"
   xml:space="preserve"
   id="svg2"
   version="1.1"><metadata
     id="metadata8"><rdf:RDF><cc:Work
         rdf:about=""><dc:format>image/svg+xml</dc:format><dc:type
           rdf:resource="http://purl.org/dc/dcmitype/StillImage" /></cc:Work></rdf:RDF></metadata><defs
     id="defs6"><clipPath
       id="clipPath20"
       clipPathUnits="userSpaceOnUse"><path
         id="path18"
         d="M 0,0 H 555 V 250 H 0 Z" /></clipPath><clipPath
       id="clipPath30"
       clipPathUnits="userSpaceOnUse"><path
         id="path28"
         d="M 0,0 H 554 V 250 H 0 Z" /></clipPath><clipPath
       id="clipPath42"
       clipPathUnits="userSpaceOnUse"><path
         id="path40"
         d="M 40,73 H 544 V 234 H 40 Z" /></clipPath><clipPath
       id="clipPath52"
       clipPathUnits="userSpaceOnUse"><path
         id="path50"
         d="M 40,73 H 544 V 234 H 40 Z" /></clipPath><clipPath
       id="clipPath62"
       clipPathUnits="userSpaceOnUse"><path
         id="path60"
         d="M 40,73 H 544 V 234 H 40 Z" /></clipPath><clipPath
       id="clipPath72"
       clipPathUnits="userSpaceOnUse"><path
         id="path70"
         d="M 40,73 H 544 V 234 H 40 Z" /></clipPath><clipPath
       id="clipPath82"
       clipPathUnits="userSpaceOnUse"><path
         id="path80"
         d="M 0,0 H 554 V 250 H 0 Z" /></clipPath><clipPath
       id="clipPath94"
       clipPathUnits="userSpaceOnUse"><path
         id="path92"
         d="M 0,0 H 554 V 250 H 0 Z" /></clipPath><clipPath
       id="clipPath106"
       clipPathUnits="userSpaceOnUse"><path
         id="path104"
         d="M 0,0 H 554 V 250 H 0 Z" /></clipPath><clipPath
       id="clipPath120"
       clipPathUnits="userSpaceOnUse"><path
         id="path118"
         d="M 0,0 H 554 V 250 H 0 Z" /></clipPath><clipPath
       id="clipPath134"
       clipPathUnits="userSpaceOnUse"><path
         id="path132"
         d="M 0,0 H 554 V 250 H 0 Z" /></clipPath><clipPath
       id="clipPath148"
       clipPathUnits="userSpaceOnUse"><path
         id="path146"
         d="M 0,0 H 554 V 250 H 0 Z" /></clipPath><clipPath
       id="clipPath162"
       clipPathUnits="userSpaceOnUse"><path
         id="path160"
         d="M 0,0 H 554 V 250 H 0 Z" /></clipPath><clipPath
       id="clipPath176"
       clipPathUnits="userSpaceOnUse"><path
         id="path174"
         d="M 0,0 H 554 V 250 H 0 Z" /></clipPath><clipPath
       id="clipPath190"
       clipPathUnits="userSpaceOnUse"><path
         id="path188"
         d="M 0,0 H 554 V 250 H 0 Z" /></clipPath><clipPath
       id="clipPath204"
       clipPathUnits="userSpaceOnUse"><path
         id="path202"
         d="M 0,0 H 554 V 250 H 0 Z" /></clipPath><clipPath
       id="clipPath218"
       clipPathUnits="userSpaceOnUse"><path
         id="path216"
         d="M 0,0 H 554 V 250 H 0 Z" /></clipPath><clipPath
       id="clipPath232"
       clipPathUnits="userSpaceOnUse"><path
         id="path230"
         d="M 0,0 H 554 V 250 H 0 Z" /></clipPath><clipPath
       id="clipPath246"
       clipPathUnits="userSpaceOnUse"><path
         id="path244"
         d="M 0,0 H 554 V 250 H 0 Z" /></clipPath><clipPath
       id="clipPath260"
       clipPathUnits="userSpaceOnUse"><path
         id="path258"
         d="M 0,0 H 554 V 250 H 0 Z" /></clipPath><clipPath
       id="clipPath274"
       clipPathUnits="userSpaceOnUse"><path
         id="path272"
         d="M 0,0 H 554 V 250 H 0 Z" /></clipPath><clipPath
       id="clipPath288"
       clipPathUnits="userSpaceOnUse"><path
         id="path286"
         d="M 0,0 H 554 V 250 H 0 Z" /></clipPath><clipPath
       id="clipPath302"
       clipPathUnits="userSpaceOnUse"><path
         id="path300"
         d="M 0,0 H 554 V 250 H 0 Z" /></clipPath><clipPath
       id="clipPath312"
       clipPathUnits="userSpaceOnUse"><path
         id="path310"
         d="M 0,0 H 554 V 250 H 0 Z" /></clipPath><clipPath
       id="clipPath326"
       clipPathUnits="userSpaceOnUse"><path
         id="path324"
         d="M 0,0 H 554 V 250 H 0 Z" /></clipPath><clipPath
       id="clipPath336"
       clipPathUnits="userSpaceOnUse"><path
         id="path334"
         d="M 0,0 H 554 V 250 H 0 Z" /></clipPath><clipPath
       id="clipPath350"
       clipPathUnits="userSpaceOnUse"><path
         id="path348"
         d="M 0,0 H 554 V 250 H 0 Z" /></clipPath><clipPath
       id="clipPath360"
       clipPathUnits="userSpaceOnUse"><path
         id="path358"
         d="M 0,0 H 554 V 250 H 0 Z" /></clipPath><clipPath
       id="clipPath374"
       clipPathUnits="userSpaceOnUse"><path
         id="path372"
         d="M 0,0 H 554 V 250 H 0 Z" /></clipPath><clipPath
       id="clipPath384"
       clipPathUnits="userSpaceOnUse"><path
         id="path382"
         d="M 0,0 H 554 V 250 H 0 Z" /></clipPath></defs><g
     transform="matrix(1.3333333,0,0,-1.3333333,0,333.33333)"
     id="g10"><g
       id="g12" /><g
       id="g14"><g
         clip-path="url(#clipPath20)"
         id="g16"><path
           id="path22"
           style="fill:#ffffff;fill-opacity:1;fill-rule:nonzero;stroke:none"
           d="M 0,250 H 555 V 0 H 0 Z" /></g></g><g
       id="g24"><g
         clip-path="url(#clipPath30)"
         id="g26"><g
           transform="matrix(7.874016e-5,0,0,-7.874016e-5,40.5,233.5)"
           id="g32"><path
             id="path34"
             style="fill:none;stroke:#d9d9d9;stroke-width:9525;stroke-linecap:butt;stroke-linejoin:round;stroke-miterlimit:10;stroke-dasharray:none;stroke-opacity:1"
             d="M 0,1358900 H 6388100 M 0,685800 H 6388100 M 0,0 h 6388100" /></g></g></g><g
       id="g36"><g
         clip-path="url(#clipPath42)"
         id="g38"><path
           id="path44"
           style="fill:#ffc31b;fill-opacity:1;fill-rule:nonzero;stroke:none"
           d="m 80,189 h 36 V 73 H 80 Z m 251,-46 h 36 V 73 h -36 z" /></g></g><g
       id="g46"><g
         clip-path="url(#clipPath52)"
         id="g48"><path
           id="path54"
           style="fill:#a489ec;fill-opacity:1;fill-rule:nonzero;stroke:none"
           d="m 126,141 h 35 V 73 h -35 z m 251,-29 h 36 V 73 h -36 z" /></g></g><g
       id="g56"><g
         clip-path="url(#clipPath62)"
         id="g58"><path
           id="path64"
           style="fill:#1dc997;fill-opacity:1;fill-rule:nonzero;stroke:none"
           d="m 171,201 h 36 V 73 h -36 z m 252,-58 h 36 V 73 h -36 z" /></g></g><g
       id="g66"><g
         clip-path="url(#clipPath72)"
         id="g68"><path
           id="path74"
           style="fill:#5c7cfb;fill-opacity:1;fill-rule:nonzero;stroke:none"
           d="m 217,213 h 36 V 73 h -36 z m 251,-30 h 36 V 73 h -36 z" /></g></g><g
       id="g76"><g
         clip-path="url(#clipPath82)"
         id="g78"><g
           transform="matrix(7.874016e-5,0,0,-7.874016e-5,40.5,73.5)"
           id="g84"><path
             id="path86"
             style="fill:none;stroke:#d9d9d9;stroke-width:9525;stroke-linecap:butt;stroke-linejoin:round;stroke-miterlimit:10;stroke-dasharray:none;stroke-opacity:1"
             d="M 0,0 6388100,1" /></g></g></g><g
       id="g88"><g
         clip-path="url(#clipPath94)"
         id="g90"><g
           transform="matrix(7.874016e-5,0,0,-7.874016e-5,40.5,73.5)"
           id="g96"><path
             id="path98"
             style="fill:none;stroke:#d9d9d9;stroke-width:9525;stroke-linecap:butt;stroke-linejoin:round;stroke-miterlimit:10;stroke-dasharray:none;stroke-opacity:1"
             d="M 0,0 V 76200 M 3200400,0 V 76200 M 6388100,0 v 76200" /></g></g></g><g
       id="g100"><g
         clip-path="url(#clipPath106)"
         id="g102"><g
           transform="translate(77.36768,-51)"
           id="g108"><text
             id="text112"
             style="font-variant:normal;font-weight:normal;font-size:18px;font-family:Corbel;-inkscape-font-specification:Corbel;writing-mode:lr-tb;fill:#000000;fill-opacity:1;fill-rule:nonzero;stroke:none"
             transform="matrix(1,0,0,-1,0,250)"><tspan
               id="tspan110"
               y="0"
               x="0 7.9991999 17.006399 21.999599 31.0068">10.88</tspan></text>
</g></g></g><g
       id="g114"><g
         clip-path="url(#clipPath120)"
         id="g116"><g
           transform="translate(332.9906,-97)"
           id="g122"><text
             id="text126"
             style="font-variant:normal;font-weight:normal;font-size:18px;font-family:Corbel;-inkscape-font-specification:Corbel;writing-mode:lr-tb;fill:#000000;fill-opacity:1;fill-rule:nonzero;stroke:none"
             transform="matrix(1,0,0,-1,0,250)"><tspan
               id="tspan124"
               y="0"
               x="0 9 14.004 23.004">6.56</tspan></text>
</g></g></g><g
       id="g128"><g
         clip-path="url(#clipPath134)"
         id="g130"><g
           transform="translate(128.0188,-99)"
           id="g136"><text
             id="text140"
             style="font-variant:normal;font-weight:normal;font-size:18px;font-family:Corbel;-inkscape-font-specification:Corbel;writing-mode:lr-tb;fill:#000000;fill-opacity:1;fill-rule:nonzero;stroke:none"
             transform="matrix(1,0,0,-1,0,250)"><tspan
               id="tspan138"
               y="0"
               x="0 9 14.004 21.996">6.39</tspan></text>
</g></g></g><g
       id="g142"><g
         clip-path="url(#clipPath148)"
         id="g144"><g
           transform="translate(379.6392,-128)"
           id="g150"><text
             id="text154"
             style="font-variant:normal;font-weight:normal;font-size:18px;font-family:Corbel;-inkscape-font-specification:Corbel;writing-mode:lr-tb;fill:#000000;fill-opacity:1;fill-rule:nonzero;stroke:none"
             transform="matrix(1,0,0,-1,0,250)"><tspan
               id="tspan152"
               y="0"
               x="0 7.9991999 12.9924 21.999599">3.64</tspan></text>
</g></g></g><g
       id="g156"><g
         clip-path="url(#clipPath162)"
         id="g158"><g
           transform="translate(168.67,-39)"
           id="g164"><text
             id="text168"
             style="font-variant:normal;font-weight:normal;font-size:18px;font-family:Corbel;-inkscape-font-specification:Corbel;writing-mode:lr-tb;fill:#000000;fill-opacity:1;fill-rule:nonzero;stroke:none"
             transform="matrix(1,0,0,-1,0,250)"><tspan
               id="tspan166"
               y="0"
               x="0 7.9991999 17.006399 21.999599 31.0068">12.02</tspan></text>
</g></g></g><g
       id="g170"><g
         clip-path="url(#clipPath176)"
         id="g172"><g
           transform="translate(424.2904,-98)"
           id="g178"><text
             id="text182"
             style="font-variant:normal;font-weight:normal;font-size:18px;font-family:Corbel;-inkscape-font-specification:Corbel;writing-mode:lr-tb;fill:#000000;fill-opacity:1;fill-rule:nonzero;stroke:none"
             transform="matrix(1,0,0,-1,0,250)"><tspan
               id="tspan180"
               y="0"
               x="0 9 14.004 23.004">6.52</tspan></text>
</g></g></g><g
       id="g184"><g
         clip-path="url(#clipPath190)"
         id="g186"><g
           transform="translate(213.3211,-28)"
           id="g192"><text
             id="text196"
             style="font-variant:normal;font-weight:bold;font-size:18px;font-family:Corbel;-inkscape-font-specification:Corbel-Bold;writing-mode:lr-tb;fill:#5c7cfb;fill-opacity:1;fill-rule:nonzero;stroke:none"
             transform="matrix(1,0,0,-1,0,250)"><tspan
               id="tspan194"
               y="0"
               x="0 9 18 23.004 32.004002">13.08</tspan></text>
</g></g></g><g
       id="g198"><g
         clip-path="url(#clipPath204)"
         id="g200"><g
           transform="translate(465.944,-57)"
           id="g206"><text
             id="text210"
             style="font-variant:normal;font-weight:bold;font-size:18px;font-family:Corbel;-inkscape-font-specification:Corbel-Bold;writing-mode:lr-tb;fill:#5c7cfb;fill-opacity:1;fill-rule:nonzero;stroke:none"
             transform="matrix(1,0,0,-1,0,250)"><tspan
               id="tspan208"
               y="0"
               x="0 9 18 23.004 32.004002">10.31</tspan></text>
</g></g></g><g
       id="g212"><g
         clip-path="url(#clipPath218)"
         id="g214"><g
           transform="translate(14.57,-181)"
           id="g220"><text
             id="text224"
             style="font-variant:normal;font-weight:normal;font-size:18px;font-family:Corbel;-inkscape-font-specification:Corbel;writing-mode:lr-tb;fill:#000000;fill-opacity:1;fill-rule:nonzero;stroke:none"
             transform="matrix(1,0,0,-1,0,250)"><tspan
               id="tspan222"
               y="0"
               x="0">0</tspan></text>
</g></g></g><g
       id="g226"><g
         clip-path="url(#clipPath232)"
         id="g228"><g
           transform="translate(15.17504,-128)"
           id="g234"><text
             id="text238"
             style="font-variant:normal;font-weight:normal;font-size:18px;font-family:Corbel;-inkscape-font-specification:Corbel;writing-mode:lr-tb;fill:#000000;fill-opacity:1;fill-rule:nonzero;stroke:none"
             transform="matrix(1,0,0,-1,0,250)"><tspan
               id="tspan236"
               y="0"
               x="0">5</tspan></text>
</g></g></g><g
       id="g240"><g
         clip-path="url(#clipPath246)"
         id="g242"><g
           transform="translate(6.5,-75)"
           id="g248"><text
             id="text252"
             style="font-variant:normal;font-weight:normal;font-size:18px;font-family:Corbel;-inkscape-font-specification:Corbel;writing-mode:lr-tb;fill:#000000;fill-opacity:1;fill-rule:nonzero;stroke:none"
             transform="matrix(1,0,0,-1,0,250)"><tspan
               id="tspan250"
               y="0"
               x="0 7.9991999">10</tspan></text>
</g></g></g><g
       id="g254"><g
         clip-path="url(#clipPath260)"
         id="g256"><g
           transform="translate(7.10504,-22)"
           id="g262"><text
             id="text266"
             style="font-variant:normal;font-weight:normal;font-size:18px;font-family:Corbel;-inkscape-font-specification:Corbel;writing-mode:lr-tb;fill:#000000;fill-opacity:1;fill-rule:nonzero;stroke:none"
             transform="matrix(1,0,0,-1,0,250)"><tspan
               id="tspan264"
               y="0"
               x="0 7.9991999">15</tspan></text>
</g></g></g><g
       id="g268"><g
         clip-path="url(#clipPath274)"
         id="g270"><g
           transform="translate(70.63417,-205)"
           id="g276"><text
             id="text280"
             style="font-variant:normal;font-weight:normal;font-size:18px;font-family:Corbel;-inkscape-font-specification:Corbel;writing-mode:lr-tb;fill:#000000;fill-opacity:1;fill-rule:nonzero;stroke:none"
             transform="matrix(1,0,0,-1,0,250)"><tspan
               id="tspan278"
               y="0"
               x="0 12.9996 20.995199 29.9988 35.996399 39.995998 49.989601 58.993198 65.998802 75.992401 85.986 94.989601 101.9952 110.9988 114.9984 124.992 130.98959 139.99319 149.9868 153.9864 161.98199 167.9796 171.9792 181.97279">Next Response Prediction</tspan></text>
</g></g></g><g
       id="g282"><g
         clip-path="url(#clipPath288)"
         id="g284"><g
           transform="translate(359.6472,-205)"
           id="g290"><text
             id="text294"
             style="font-variant:normal;font-weight:normal;font-size:18px;font-family:Corbel;-inkscape-font-specification:Corbel;writing-mode:lr-tb;fill:#000000;fill-opacity:1;fill-rule:nonzero;stroke:none"
             transform="matrix(1,0,0,-1,0,250)"><tspan
               id="tspan292"
               y="0"
               x="0 3.9995999 18.9972 28.000799 37.9944 46.998001 50.007599 61.009201 70.012802 76.010399 82.008003 86.007599 95.0112 104.0148 112.0104">Image Retrieval</tspan></text>
</g></g></g><g
       id="g296"><g
         clip-path="url(#clipPath302)"
         id="g298"><path
           id="path304"
           style="fill:#ffc31b;fill-opacity:1;fill-rule:nonzero;stroke:none"
           d="M 55,24 H 65 V 15 H 55 Z" /></g></g><g
       id="g306"><g
         clip-path="url(#clipPath312)"
         id="g308"><g
           transform="translate(69.28496,-235)"
           id="g314"><text
             id="text318"
             style="font-variant:normal;font-weight:normal;font-size:18px;font-family:Corbel;-inkscape-font-specification:Corbel;writing-mode:lr-tb;fill:#000000;fill-opacity:1;fill-rule:nonzero;stroke:none"
             transform="matrix(1,0,0,-1,0,250)"><tspan
               id="tspan316"
               y="0"
               x="0 14.9994 29.9988 41.992199">MMDD</tspan></text>
</g></g></g><g
       id="g320"><g
         clip-path="url(#clipPath326)"
         id="g322"><path
           id="path328"
           style="fill:#a489ec;fill-opacity:1;fill-rule:nonzero;stroke:none"
           d="m 145,24 h 10 v -9 h -10 z" /></g></g><g
       id="g330"><g
         clip-path="url(#clipPath336)"
         id="g332"><g
           transform="translate(159.0859,-235)"
           id="g338"><text
             id="text342"
             style="font-variant:normal;font-weight:normal;font-size:18px;font-family:Corbel;-inkscape-font-specification:Corbel;writing-mode:lr-tb;fill:#000000;fill-opacity:1;fill-rule:nonzero;stroke:none"
             transform="matrix(1,0,0,-1,0,250)"><tspan
               id="tspan340"
               y="0"
               x="0 10.0008 20.0016 28.9944 35.989201 44.981998 55.990799 64.983597 73.976402">PhotoChat</tspan></text>
</g></g></g><g
       id="g344"><g
         clip-path="url(#clipPath350)"
         id="g346"><path
           id="path352"
           style="fill:#1dc997;fill-opacity:1;fill-rule:nonzero;stroke:none"
           d="m 261,24 h 10 v -9 h -10 z" /></g></g><g
       id="g354"><g
         clip-path="url(#clipPath360)"
         id="g356"><g
           transform="translate(275.7068,-235)"
           id="g362"><text
             id="text366"
             style="font-variant:normal;font-weight:normal;font-size:18px;font-family:Corbel;-inkscape-font-specification:Corbel;writing-mode:lr-tb;fill:#000000;fill-opacity:1;fill-rule:nonzero;stroke:none"
             transform="matrix(1,0,0,-1,0,250)"><tspan
               id="tspan364"
               y="0"
               x="0 14.9994 29.9988 41.992199 45.993599 54.999001 59.000401 68.005798">MMDialog</tspan></text>
</g></g></g><g
       id="g368"><g
         clip-path="url(#clipPath374)"
         id="g370"><path
           id="path376"
           style="fill:#5c7cfb;fill-opacity:1;fill-rule:nonzero;stroke:none"
           d="m 375,24 h 10 v -9 h -10 z" /></g></g><g
       id="g378"><g
         clip-path="url(#clipPath384)"
         id="g380"><g
           transform="translate(389.7529,-235)"
           id="g386"><text
             id="text390"
             style="font-variant:normal;font-weight:normal;font-size:18px;font-family:Corbel;-inkscape-font-specification:Corbel;writing-mode:lr-tb;fill:#000000;fill-opacity:1;fill-rule:nonzero;stroke:none"
             transform="matrix(1,0,0,-1,0,250)"><tspan
               id="tspan388"
               y="0"
               x="0 12.0006 15.9912 24.9858 28.9764 38.979 47.973598 58.966202 69.958801 72.959396 78.966003 87.960602 97.963203 103.9698 110.9664">DialogCC (ours)</tspan></text>
</g></g></g></g></svg>